<?xml version="1.0" standalone="no"?>
<!DOCTYPE svg PUBLIC "-//W3C//DTD SVG 20010904//EN"
 "http://www.w3.org/TR/2001/REC-SVG-20010904/DTD/svg10.dtd">
<svg version="1.0" xmlns="http://www.w3.org/2000/svg"
 width="557.000000pt" height="557.000000pt" viewBox="0 0 557.000000 557.000000"
 preserveAspectRatio="xMidYMid meet">
<metadata>
Created by potrace 1.14, written by Peter Selinger 2001-2017
</metadata>
<g transform="translate(0.000000,557.000000) scale(0.100000,-0.100000)"
fill="#000000" stroke="none">
<path d="M4173 5561 c-4 -4 -26 -13 -48 -19 -23 -6 -50 -20 -60 -30 -11 -9
-38 -31 -60 -47 -66 -50 -135 -114 -135 -126 0 -5 -27 -73 -60 -152 -33 -80
-60 -156 -60 -170 0 -23 -12 -32 -92 -74 l-93 -48 0 -78 c0 -42 -2 -77 -5 -77
-3 0 -5 -37 -4 -82 1 -80 3 -87 57 -193 40 -82 55 -121 54 -150 0 -27 8 -53
25 -81 l26 -40 -33 -58 c-43 -76 -53 -86 -66 -63 -6 9 -14 15 -20 12 -5 -4 -9
1 -9 9 0 9 -3 16 -7 16 -20 1 -82 70 -104 115 -13 28 -23 53 -22 57 2 4 -6 5
-17 3 -11 -2 -27 3 -35 12 -14 14 -22 13 -76 -11 -61 -26 -79 -27 -79 -2 0 8
-10 21 -22 29 -13 9 -41 32 -62 51 -29 26 -49 36 -73 36 -27 0 -35 5 -43 25
-5 14 -14 26 -20 26 -13 2 -14 2 -75 17 -42 11 -57 10 -93 -2 -38 -14 -44 -14
-48 -1 -9 22 -29 18 -81 -14 -46 -29 -75 -32 -53 -6 8 9 8 15 0 20 -7 4 -7 12
0 25 15 27 13 63 -2 54 -10 -6 -10 -4 0 7 6 7 12 31 12 54 -1 39 -2 37 -32
-40 -17 -44 -31 -90 -31 -102 -1 -12 -5 -19 -11 -16 -5 3 -14 0 -20 -8 -33
-42 -43 -42 -73 3 -16 24 -29 50 -28 58 0 8 -4 18 -10 22 -7 5 -7 8 0 8 6 0
11 15 10 33 0 17 3 34 6 37 3 3 18 25 34 50 l27 45 -52 -50 c-53 -52 -95 -118
-85 -135 3 -6 1 -10 -6 -10 -7 0 -10 -11 -7 -30 3 -16 3 -30 0 -30 -4 0 -159
106 -175 120 -8 7 -11 20 -21 86 -17 108 -14 102 -54 93 -21 -5 -53 -12 -72
-15 -19 -3 -38 -8 -42 -10 -5 -3 -307 129 -357 156 -38 22 -156 71 -180 75
-14 3 -37 7 -51 10 -14 3 -47 9 -75 15 -51 9 -79 15 -125 25 -14 3 -36 8 -50
10 -14 3 -47 10 -75 16 -27 6 -59 12 -70 14 -11 1 -51 8 -90 15 -68 12 -75 11
-236 -28 -91 -23 -176 -43 -190 -46 -67 -13 -245 -61 -253 -68 -5 -4 1 -5 14
-3 26 5 127 15 195 20 22 1 87 6 145 10 58 3 112 8 120 10 8 3 60 7 115 10
l100 6 38 -35 c20 -20 37 -39 37 -44 0 -4 8 -15 18 -24 9 -9 36 -38 59 -64 23
-27 52 -60 63 -74 12 -14 39 -45 59 -70 20 -24 47 -55 61 -68 14 -13 20 -21
14 -18 -7 3 -11 -20 -12 -72 -1 -42 -2 -115 -3 -163 l-2 -85 -146 -38 c-80
-21 -153 -39 -161 -41 -8 -2 -35 -8 -60 -14 -25 -7 -54 -14 -65 -16 -11 -3
-45 -11 -75 -19 l-55 -14 100 -2 c55 -2 138 -4 185 -6 47 -2 137 -5 200 -6
l115 -4 41 -42 c22 -23 43 -42 46 -42 2 0 39 -33 80 -72 42 -40 100 -96 129
-124 30 -28 56 -61 58 -75 1 -13 8 -27 15 -31 6 -4 8 -8 3 -8 -4 0 -1 -16 7
-35 8 -19 13 -35 11 -35 -2 0 3 -19 11 -42 9 -24 17 -48 18 -55 1 -7 5 -16 9
-19 4 -4 7 -14 7 -23 0 -9 7 -28 14 -44 18 -34 28 -28 -224 -127 -102 -41
-188 -76 -193 -80 -4 -3 32 0 80 7 49 7 106 15 128 18 22 3 78 11 125 19 73
12 125 13 202 4 9 -1 15 -5 12 -9 -2 -4 6 -11 18 -14 13 -4 42 -16 65 -26 55
-25 97 -41 102 -39 2 1 15 -18 29 -42 14 -24 29 -45 32 -48 4 -3 12 -15 19
-28 7 -12 17 -20 23 -16 7 4 8 2 4 -5 -9 -13 21 -64 32 -57 4 2 8 -5 8 -16 0
-14 -65 -68 -233 -195 -128 -96 -233 -177 -233 -179 0 -2 127 61 283 140 219
111 315 154 428 191 107 36 152 46 174 41 l28 -7 -80 -82 c-75 -75 -83 -88
-103 -155 -24 -83 -23 -102 14 -191 14 -35 23 -68 19 -74 -6 -10 -52 -52 -97
-89 -62 -51 -72 -69 -94 -166 l-22 -97 20 -80 c37 -143 39 -129 -39 -255 -51
-82 -71 -125 -72 -150 0 -19 -3 -73 -5 -119 -5 -85 6 -130 39 -163 7 -7 26
-36 41 -64 27 -50 27 -53 11 -77 -9 -15 -13 -32 -9 -38 4 -7 3 -9 -4 -5 -6 3
-16 -3 -22 -14 -6 -11 -8 -20 -5 -20 3 0 -4 -9 -15 -20 -11 -11 -20 -26 -20
-34 0 -7 -7 -19 -15 -26 -9 -7 -13 -15 -10 -18 3 -3 -2 -14 -11 -24 -19 -20
-32 -104 -15 -93 13 8 14 -5 1 -25 -5 -8 -5 -19 0 -25 10 -12 10 -14 10 -61 0
-21 4 -33 10 -29 6 4 7 11 4 17 -4 7 -2 8 4 4 7 -4 12 -3 12 1 0 5 6 18 14 28
12 17 16 17 31 5 14 -12 18 -12 27 1 8 11 9 10 4 -5 -4 -13 -2 -17 7 -13 8 3
20 1 28 -4 11 -7 11 -9 1 -9 -7 0 -10 -5 -7 -10 4 -6 -8 -2 -26 9 -24 15 -36
17 -46 9 -7 -6 -13 -7 -13 -2 0 5 -8 -2 -17 -16 -12 -17 -13 -25 -5 -28 7 -2
12 -9 12 -15 0 -8 -4 -7 -12 1 -16 16 -25 15 -25 -3 0 -8 4 -12 9 -9 5 4 8 -2
6 -12 -2 -12 2 -18 10 -16 8 1 11 -1 8 -6 -2 -4 14 -26 36 -48 23 -21 38 -32
33 -24 -4 8 -5 12 0 8 4 -4 13 -18 19 -30 6 -13 22 -25 35 -26 15 -2 21 0 17
7 -8 12 7 15 18 4 11 -12 40 -12 53 -1 8 6 16 8 20 4 3 -3 0 -6 -8 -6 -12 0
-12 -2 1 -10 9 -5 17 -5 21 1 8 14 36 1 36 -17 0 -8 -5 -13 -11 -11 -6 3 -10
10 -8 17 2 10 -1 11 -10 3 -17 -13 -49 -13 -41 0 3 6 1 7 -6 3 -6 -4 -8 -12
-5 -18 4 -6 1 -8 -7 -6 -8 3 -13 10 -12 15 2 9 -15 10 -52 4 -5 -1 -1 -7 10
-14 11 -7 21 -19 23 -27 2 -8 8 -17 13 -18 5 -2 16 -10 23 -18 13 -12 16 -11
21 7 4 11 9 19 11 16 3 -2 0 -15 -5 -29 -7 -19 -6 -25 5 -25 8 0 14 4 14 9 0
5 5 6 11 2 8 -4 8 -9 0 -17 -6 -6 -11 -15 -11 -21 0 -5 7 -1 16 10 14 18 15
18 9 -6 -5 -19 -4 -22 4 -10 10 13 11 13 12 0 1 -8 1 -18 0 -22 -2 -13 9 -9
26 8 9 8 21 13 28 10 9 -3 11 2 8 17 l-6 22 22 -22 c26 -28 26 -28 28 -4 1 11
-5 25 -13 32 -15 13 -19 29 -6 29 5 0 15 -11 22 -25 7 -13 17 -22 22 -19 4 3
8 1 8 -5 0 -5 -6 -11 -12 -14 -7 -2 -9 -8 -5 -13 10 -10 29 16 23 32 -2 6 8
11 24 11 21 0 27 -4 23 -16 -4 -14 -3 -14 5 -1 6 8 8 18 5 23 -3 5 0 7 8 5 8
-3 13 -12 11 -19 -2 -8 0 -10 5 -6 4 5 9 13 9 18 1 5 2 14 3 20 0 5 6 7 11 4
6 -3 10 -2 10 3 0 13 -26 23 -43 16 -8 -3 -13 3 -13 16 0 11 7 22 14 25 10 4
12 0 8 -10 -3 -9 -2 -13 3 -10 5 3 13 1 16 -5 5 -8 12 -7 22 2 14 11 15 10 8
-12 -7 -23 -7 -23 9 -7 10 9 22 15 27 11 5 -3 8 0 7 8 -2 7 3 12 10 11 6 -2
12 2 12 7 0 15 -16 12 -30 -5 -7 -8 -16 -12 -21 -9 -11 6 -12 24 -1 23 36 -6
61 21 56 62 -3 26 -1 29 10 20 7 -6 21 -8 30 -5 14 5 14 9 4 22 -11 13 -10 15
4 9 13 -4 16 -1 13 14 -3 17 6 24 27 20 5 0 7 2 7 7 -5 28 1 34 18 21 10 -8 1
7 -20 32 -42 53 -50 74 -11 32 l26 -28 -16 27 c-21 35 -21 48 0 22 14 -17 15
-18 10 -1 -4 12 2 26 16 39 18 15 19 18 5 14 -15 -5 -16 -2 -7 14 6 11 8 20 5
20 -3 0 -1 8 4 18 7 13 6 23 -2 32 -9 10 -9 11 0 6 7 -4 22 -2 33 4 16 9 18
15 10 30 -6 11 -7 20 -3 20 4 0 1 4 -7 9 -8 6 -18 7 -23 4 -5 -3 -3 -9 4 -14
10 -6 10 -9 2 -9 -17 0 -23 14 -14 29 7 10 13 11 30 2 12 -7 19 -16 16 -21 -3
-5 -1 -11 5 -15 5 -3 10 1 10 10 0 9 4 13 10 10 6 -4 7 1 3 11 -4 11 -2 15 4
11 15 -9 11 25 -5 41 -7 8 -10 17 -7 22 3 5 -3 15 -14 22 -19 14 -19 14 0 26
11 7 19 8 19 2 0 -5 -5 -10 -11 -10 -5 0 -7 -5 -4 -10 4 -6 10 -8 15 -5 5 3 7
-3 5 -15 -2 -11 1 -22 7 -26 7 -4 9 9 7 39 -2 25 0 43 5 39 5 -3 7 5 4 16 -4
12 -2 24 3 27 5 3 7 19 5 35 -2 16 -1 31 3 33 3 2 1 2 -6 1 -7 -2 -15 1 -19 7
-3 6 -11 3 -19 -8 -10 -14 -16 -15 -27 -5 -8 6 -19 8 -23 4 -5 -4 -5 -1 -1 6
5 7 11 11 14 8 3 -3 11 -1 19 5 7 6 13 8 13 3 0 -4 6 1 14 11 8 11 11 26 8 35
-3 8 -2 12 2 9 11 -10 16 -50 5 -44 -10 7 -13 -8 -3 -18 14 -13 31 6 29 33 -1
17 1 30 4 30 3 0 7 21 8 48 1 26 0 42 -3 35 -3 -7 -12 -9 -20 -6 -9 3 -12 0
-9 -9 3 -8 -1 -21 -10 -28 -10 -8 -15 -9 -15 -1 0 6 5 11 10 11 6 0 10 5 10
11 0 5 -4 7 -10 4 -6 -4 -7 1 -3 12 6 16 5 16 -10 4 -12 -9 -17 -10 -17 -2 0
7 -4 10 -10 6 -5 -3 -6 -13 -3 -22 6 -15 5 -16 -9 -3 -9 8 -14 18 -12 22 3 4
-10 2 -28 -3 -22 -6 -34 -6 -36 1 -2 6 -7 8 -12 5 -4 -3 -6 12 -4 32 2 20 9
40 16 44 14 9 42 28 63 44 13 9 135 303 135 324 0 5 -21 13 -47 17 -55 9 -49
8 -91 18 -28 7 -32 11 -29 34 3 20 15 34 51 53 51 28 52 30 149 211 l57 107
-32 17 c-18 9 -34 18 -36 19 -1 1 11 33 27 71 27 64 61 102 104 117 7 2 1 16
-16 37 -29 34 -27 47 8 53 94 16 175 42 175 56 0 11 3 12 8 5 6 -10 59 -22
100 -24 8 0 11 -7 8 -17 -3 -10 -7 -29 -10 -43 -3 -14 -12 -50 -20 -80 -9 -30
-16 -61 -16 -68 0 -10 89 56 120 88 3 3 27 24 55 45 75 61 84 72 80 97 -3 12
-7 40 -11 62 -3 22 -7 43 -10 47 -2 3 10 27 26 53 17 26 30 50 30 53 0 4 6 14
14 22 18 21 91 155 86 159 -5 6 80 132 89 132 4 0 32 -13 61 -29 l53 -29 109
75 c60 41 112 72 116 68 4 -3 2 -9 -4 -13 -5 -4 -25 -27 -44 -52 -43 -56 -70
-88 -91 -110 -8 -9 -22 -27 -31 -39 -18 -25 -21 -17 85 -229 37 -73 20 -70
177 -33 114 27 105 7 -41 -84 -124 -78 -126 -81 -108 -165 9 -41 18 -99 25
-153 7 -53 22 -88 36 -86 11 2 114 -10 141 -17 4 -1 18 -2 32 -3 14 0 25 -7
25 -15 0 -13 -59 -31 -170 -51 -65 -12 -80 -18 -78 -28 2 -11 -5 -62 -18 -133
-3 -16 -7 -42 -9 -59 -2 -16 -6 -42 -9 -57 -16 -77 -16 -76 22 -106 20 -15 56
-40 80 -55 31 -20 42 -34 42 -53 0 -14 -4 -23 -10 -19 -9 6 -14 -8 -11 -28 1
-5 -3 -6 -9 -2 -6 3 -14 -4 -19 -17 -6 -13 -10 -17 -10 -9 -1 8 6 23 16 33 20
23 14 29 -31 31 -20 1 -36 5 -36 8 0 3 -12 5 -27 3 -15 -1 -32 1 -38 6 -5 4
-13 9 -17 9 -9 1 -48 -36 -48 -45 0 -3 -16 -37 -35 -75 -19 -38 -32 -69 -29
-69 3 0 -2 -7 -10 -16 -9 -8 -14 -20 -11 -25 4 -5 1 -9 -5 -9 -6 0 -8 -5 -5
-10 3 -6 -1 -13 -10 -16 -10 -4 -13 -13 -10 -25 4 -11 2 -19 -3 -19 -14 0 -36
-51 -37 -86 0 -23 3 -30 14 -26 10 4 12 1 5 -9 -12 -19 -14 -69 -2 -69 5 0 6
4 3 10 -3 5 1 10 9 10 20 0 20 -9 1 -30 -8 -9 -16 -25 -18 -37 -1 -12 -9 -28
-15 -36 -9 -11 -10 -17 -2 -22 6 -3 7 -11 4 -17 -4 -7 -9 -6 -14 1 -5 9 -10 7
-20 -4 -11 -13 -10 -14 4 -9 12 5 15 2 10 -9 -3 -9 -11 -15 -17 -13 -7 1 -9 1
-4 -1 4 -3 7 -9 7 -14 0 -5 -3 -8 -7 -8 -20 3 -34 -2 -28 -11 3 -5 0 -10 -7
-10 -8 -1 -7 -5 5 -14 11 -9 34 -12 58 -10 22 2 38 0 35 -4 -3 -5 1 -9 9 -9
11 0 12 4 4 14 -6 7 -8 13 -3 13 12 0 41 -20 30 -20 -5 0 -3 -7 4 -15 7 -8 16
-12 21 -9 5 3 19 0 31 -6 22 -11 23 -11 3 5 -19 16 -19 16 8 12 29 -3 50 -24
41 -39 -3 -4 0 -8 5 -8 6 0 11 5 11 11 0 5 6 7 13 3 9 -6 9 -5 0 8 -7 8 -10
18 -6 22 4 4 0 4 -10 0 -12 -4 -16 -2 -12 8 3 7 14 14 25 14 13 0 19 -5 15
-14 -3 -7 0 -22 5 -33 6 -10 7 -19 2 -19 -4 0 -17 -7 -28 -16 -18 -15 -18 -15
3 -5 31 16 37 14 22 -6 -12 -16 -12 -17 2 -6 9 7 19 10 22 6 4 -3 7 -1 7 5 0
5 -5 12 -10 14 -6 2 -1 9 10 16 19 11 20 10 15 -25 -3 -23 -1 -33 4 -24 6 9
10 10 16 2 4 -7 16 -9 27 -5 17 5 18 3 9 -15 -7 -12 -17 -21 -23 -21 -6 0 -9
-2 -6 -5 9 -10 38 7 38 22 0 8 5 11 10 8 7 -4 7 -12 0 -25 -7 -13 -7 -21 2
-26 7 -4 8 -3 4 4 -4 7 -2 12 4 12 6 0 9 4 6 9 -3 5 2 15 11 22 15 12 16 12
10 -4 -10 -26 1 -41 18 -27 11 9 14 7 12 -9 -2 -24 -2 -25 -30 -9 -19 10 -20
9 -10 -4 7 -8 10 -17 7 -21 -3 -3 5 -3 18 -1 23 5 23 5 3 -11 -19 -15 -19 -15
5 -12 13 2 26 9 28 15 2 7 8 9 14 6 5 -3 2 -14 -9 -26 -9 -11 -13 -18 -8 -17
6 2 24 -4 40 -14 17 -9 24 -16 18 -17 -7 0 -13 -5 -13 -11 0 -8 4 -8 14 0 15
13 10 51 -7 51 -17 0 2 14 25 17 18 3 19 1 8 -12 -9 -11 -10 -19 -2 -27 6 -6
8 -17 5 -24 -6 -16 8 -19 23 -4 8 8 11 1 12 -22 1 -27 -1 -30 -9 -16 -11 20
-29 24 -29 7 0 -5 4 -7 10 -4 9 6 15 -8 11 -29 -1 -5 4 -4 12 2 14 12 27 7 27
-10 0 -5 -6 -6 -12 -2 -9 5 -9 2 1 -9 16 -20 2 -23 -19 -4 -12 10 -12 9 -1 -5
7 -10 20 -18 28 -18 8 0 11 -5 8 -10 -4 -6 -10 -8 -15 -5 -5 3 -12 0 -16 -6
-4 -7 -3 -9 4 -5 6 3 14 2 17 -4 4 -6 16 -8 28 -4 19 6 20 5 8 -9 -7 -9 -17
-14 -22 -11 -17 10 -49 13 -49 4 0 -5 8 -9 18 -8 9 0 27 -3 39 -5 13 -3 25 -1
28 4 4 5 10 7 15 4 5 -3 12 0 16 6 4 8 9 7 15 -2 7 -11 9 -10 9 5 0 16 2 17
17 5 14 -12 16 -12 8 0 -6 11 -4 13 8 8 9 -3 19 -2 23 4 3 6 12 8 20 5 12 -5
12 -1 -1 24 -9 18 -11 31 -5 35 6 3 10 11 10 16 0 6 -4 8 -8 5 -5 -3 -9 1 -9
9 0 20 7 19 23 -2 16 -22 18 -37 3 -27 -7 4 -9 -2 -7 -17 1 -12 10 -25 18 -27
13 -5 13 -3 1 12 -12 14 -12 16 3 10 12 -5 15 -2 10 10 -4 11 -2 16 6 14 7 -2
15 3 18 11 2 8 0 11 -5 8 -6 -4 -19 0 -29 9 -18 15 -18 15 1 6 11 -5 29 -6 40
-1 20 8 8 13 -25 10 -11 -1 -10 1 3 9 9 6 15 15 12 21 -4 5 -1 9 5 9 7 0 10
-7 6 -15 -7 -19 8 -20 23 -1 9 10 8 15 -4 20 -16 6 -21 41 -6 50 4 3 6 -6 3
-19 -6 -34 20 -33 42 0 9 14 13 25 9 25 -5 0 -3 4 2 8 6 4 19 20 29 35 18 29
18 29 -4 22 -15 -5 -20 -4 -16 4 4 6 16 11 27 11 10 0 20 3 20 8 6 34 2 192
-4 192 -5 0 -5 6 0 12 10 18 10 148 -1 148 -5 0 -3 7 4 15 6 8 9 19 5 24 -3 6
42 57 100 114 92 90 111 117 106 150 0 4 3 7 7 7 4 0 8 8 9 18 0 9 12 60 27
113 l26 96 -36 129 c-48 173 -48 194 6 334 43 115 44 115 42 234 l-2 119 -58
111 -58 111 1 130 c1 115 -3 141 -28 230 -16 55 -31 110 -34 122 -4 15 -36 40
-102 79 -53 31 -97 57 -97 58 -2 1 -8 43 -21 136 -3 25 -6 55 -6 68 -1 15 -20
39 -56 70 -30 26 -71 62 -91 80 -57 54 -162 126 -184 128 -12 0 -43 4 -70 8
l-48 8 5 44 c4 38 0 50 -24 84 -16 22 -29 43 -29 47 0 3 -19 34 -41 67 -27 40
-65 78 -110 111 -38 27 -69 54 -69 60 0 7 17 25 38 42 34 27 38 36 39 79 1 27
4 92 8 145 4 61 2 106 -6 125 -6 16 -12 36 -14 44 -2 8 -6 23 -10 33 -6 13 -2
17 19 18 14 1 31 3 36 4 6 1 16 3 23 4 6 1 30 17 52 37 22 19 68 58 103 87 53
43 69 66 77 107 12 59 31 126 37 131 4 3 29 5 55 4 56 -2 225 -83 284 -137 20
-18 65 -58 99 -88 35 -30 69 -60 76 -68 26 -26 13 4 -64 145 -65 121 -92 158
-175 247 -83 89 -106 108 -160 129 -34 14 -100 42 -147 62 -83 35 -87 36 -212
34 -69 0 -130 -4 -135 -8z m-2759 -1029 c3 -5 -1 -9 -9 -9 -8 0 -12 4 -9 9 3
4 7 8 9 8 2 0 6 -4 9 -8z m749 -157 c-3 -9 -8 -14 -10 -11 -3 3 -2 9 2 15 9
16 15 13 8 -4z m1177 -465 c0 -12 -33 -30 -56 -30 -14 0 -13 3 6 20 24 21 50
26 50 10z m-1576 -46 c3 -8 2 -12 -4 -9 -6 3 -10 10 -10 16 0 14 7 11 14 -7z
m2252 -210 l31 -6 -28 -79 c-43 -120 -41 -119 -78 -42 -19 37 -34 72 -35 78
-1 5 -4 15 -7 20 -25 43 -21 47 33 41 29 -4 67 -9 84 -12z m-2221 -84 c3 -6
-1 -7 -9 -4 -18 7 -21 14 -7 14 6 0 13 -4 16 -10z m963 -51 l30 -41 -25 -56
c-45 -104 -51 -117 -57 -136 -9 -28 -14 -17 -22 49 -9 79 -7 142 6 160 4 6 10
22 14 38 9 37 19 34 54 -14z m-288 -189 c0 -5 -5 -10 -11 -10 -5 0 -7 5 -4 10
3 6 8 10 11 10 2 0 4 -4 4 -10z m175 -109 c3 -5 2 -12 -3 -15 -5 -3 -9 1 -9 9
0 17 3 19 12 6z m500 -747 c-10 -72 -17 -83 -42 -73 -19 7 -21 12 -14 36 5 15
10 35 12 43 4 16 29 39 43 40 4 0 5 -21 1 -46z m1125 -743 c0 -10 -8 -25 -17
-32 -11 -10 -14 -10 -9 -1 4 6 2 12 -3 12 -15 0 -14 37 2 43 17 6 27 -1 27
-22z m41 -1 c6 0 7 5 4 10 -3 6 -1 10 5 10 21 0 4 -25 -17 -26 -15 -1 -20 3
-15 14 4 11 7 12 10 4 2 -7 8 -12 13 -12z m59 16 c0 -2 -7 -7 -16 -10 -8 -3
-12 -2 -9 4 6 10 25 14 25 6z m-159 -29 c-10 -9 -11 -8 -5 6 3 10 9 15 12 12
3 -3 0 -11 -7 -18z m174 13 c-3 -5 -12 -10 -18 -10 -7 0 -6 4 3 10 19 12 23
12 15 0z m159 -16 c3 -8 2 -12 -4 -9 -6 3 -10 10 -10 16 0 14 7 11 14 -7z
m-194 -5 c0 -5 5 -7 12 -3 7 4 8 3 4 -5 -4 -6 -2 -19 6 -28 7 -10 8 -14 1 -10
-6 4 -13 4 -16 0 -2 -5 -3 -3 -1 3 1 7 -4 21 -12 33 -9 12 -11 21 -5 21 6 0
11 -5 11 -11z m180 -14 c14 -19 14 -19 -2 -6 -10 7 -18 18 -18 24 0 6 1 8 3 6
1 -2 9 -13 17 -24z m-200 -18 c12 -4 12 -6 -2 -6 -9 -1 -20 4 -23 10 -5 6 -12
4 -20 -8 -12 -15 -16 -16 -27 -4 -11 12 -10 13 6 7 14 -5 17 -2 12 9 -3 9 -2
13 4 10 6 -3 10 -1 10 6 0 9 4 7 13 -3 6 -9 19 -18 27 -21z m243 8 c-10 -8
-20 -11 -23 -8 -3 3 1 8 8 10 6 3 10 9 7 14 -4 5 1 6 10 3 14 -6 14 -8 -2 -19z
m-362 -1 c-12 -9 -18 -20 -15 -26 4 -7 2 -8 -5 -4 -8 6 -9 12 -2 20 6 7 9 15
6 17 -2 3 5 6 17 6 l21 2 -22 -15z m323 -23 c-2 -2 -13 4 -24 14 -11 10 -20
13 -20 7 0 -7 -5 -12 -11 -12 -8 0 -8 4 1 15 10 13 15 12 35 -3 13 -9 21 -19
19 -21z m71 16 c-25 -15 -26 -39 -1 -52 11 -5 21 -16 22 -23 1 -7 0 -8 -3 -2
-3 6 -16 15 -29 20 -16 6 -22 15 -18 25 5 11 2 14 -12 9 -11 -3 -5 3 11 15 17
11 35 21 40 21 6 -1 1 -6 -10 -13z m-370 -7 c-3 -5 -11 -10 -16 -10 -6 0 -7 5
-4 10 3 6 11 10 16 10 6 0 7 -4 4 -10z m419 -14 c-1 -9 2 -16 7 -16 5 0 9 -5
9 -11 0 -8 -6 -7 -16 2 -15 12 -16 11 -10 -11 6 -22 5 -23 -5 -7 -8 14 -8 22
0 30 14 14 15 30 1 22 -5 -3 -10 -1 -10 5 0 7 6 10 13 7 6 -2 11 -12 11 -21z
m-407 -3 c-4 -3 1 -12 11 -19 19 -15 5 -19 -17 -5 -12 8 -8 31 6 31 4 0 3 -3
0 -7z m53 -3 c-8 -5 -19 -10 -25 -10 -5 0 -3 5 5 10 8 5 20 10 25 10 6 0 3 -5
-5 -10z m29 -35 c-15 -14 -23 -16 -26 -7 -3 6 -10 9 -16 5 -7 -4 -6 1 2 10 7
9 20 17 27 17 8 0 14 6 14 13 0 8 4 7 10 -3 7 -11 3 -21 -11 -35z m181 32 c0
-4 0 -11 0 -17 0 -5 -5 -10 -11 -10 -8 0 -7 5 2 16 11 13 9 14 -13 9 -14 -4
-28 -2 -32 3 -3 5 7 9 24 8 17 -1 30 -5 30 -9z m110 3 c0 -5 -4 -10 -10 -10
-5 0 -10 5 -10 10 0 6 5 10 10 10 6 0 10 -4 10 -10z m86 -2 c4 -7 3 -8 -4 -4
-7 4 -12 2 -12 -5 0 -7 -3 -10 -6 -6 -6 5 3 27 11 27 2 0 7 -5 11 -12z m-534
-21 c-7 -8 -9 -16 -6 -19 2 -3 -2 -8 -11 -12 -14 -5 -14 -2 1 24 10 16 20 27
22 25 3 -3 0 -11 -6 -18z m383 5 c-3 -3 -11 0 -18 7 -9 10 -8 11 6 5 10 -3 15
-9 12 -12z m-332 -25 c-3 -5 5 -6 18 -3 13 3 18 3 11 0 -6 -3 -9 -10 -6 -16 4
-6 -2 -5 -15 1 -11 7 -21 16 -21 21 0 5 -6 8 -12 6 -7 -1 -10 -1 -5 1 4 3 4 9
1 15 -3 5 3 4 14 -3 12 -7 18 -17 15 -22z m219 20 c3 4 3 3 2 -4 -4 -16 13
-27 18 -11 3 8 9 8 24 -1 14 -10 15 -11 2 -7 -10 3 -20 1 -23 -4 -3 -5 3 -11
12 -13 14 -4 14 -5 2 -6 -8 0 -28 13 -45 31 -16 18 -22 27 -12 20 9 -7 18 -9
20 -5z m305 6 c-4 -3 -1 -13 6 -21 10 -13 9 -14 -3 -7 -22 14 -52 17 -45 5 3
-5 1 -10 -5 -10 -7 0 -10 6 -7 13 2 6 11 12 20 12 8 0 19 4 23 8 4 4 10 7 12
7 3 0 2 -3 -1 -7z m-205 -17 c6 4 5 -2 -1 -15 -14 -25 -23 -28 -14 -4 4 11 3
14 -5 9 -8 -5 -10 -1 -5 10 4 11 8 13 11 6 2 -7 8 -9 14 -6z m41 -36 c-3 -3
-8 1 -10 8 -3 6 -9 10 -14 7 -5 -4 -6 1 -3 10 6 14 8 14 19 -2 8 -10 11 -20 8
-23z m-403 -1 c-11 -8 -12 -12 -2 -16 6 -2 12 -9 12 -15 0 -6 -8 -3 -19 6 -17
16 -19 16 -25 0 -4 -9 -10 -14 -14 -10 -4 4 6 18 23 31 16 13 32 22 34 19 3
-3 -1 -10 -9 -15z m110 12 c0 -5 -6 -12 -12 -15 -10 -5 -10 -7 0 -12 14 -7 16
-24 3 -24 -13 0 -21 27 -15 45 7 16 24 21 24 6z m115 -1 c3 5 12 10 18 10 7 0
3 -7 -7 -15 -20 -15 -20 -15 0 -30 10 -8 14 -15 9 -15 -6 0 -16 5 -23 12 -9 9
-12 9 -12 0 0 -7 -5 -12 -11 -12 -8 0 -8 5 1 15 10 12 10 18 -1 33 -13 15 -12
16 3 4 11 -9 18 -10 23 -2z m339 -23 c-6 -20 -5 -21 12 -7 10 8 16 10 11 5 -4
-4 0 -17 10 -27 9 -10 11 -18 6 -18 -6 0 -13 7 -17 15 -3 8 -11 14 -18 13 -6
-2 -13 9 -14 25 -2 16 1 25 7 21 5 -3 7 -15 3 -27z m-537 -9 c-3 -7 -5 -2 -5
12 0 14 2 19 5 13 2 -7 2 -19 0 -25z m313 -3 c0 -5 -4 -4 -9 4 -6 9 -11 10
-15 2 -4 -6 -15 -11 -24 -10 -12 0 -11 3 6 9 12 5 22 15 22 22 0 9 3 9 10 -2
5 -8 10 -19 10 -25z m144 18 c4 -10 4 -14 0 -10 -4 4 -13 -1 -20 -11 -11 -14
-15 -15 -26 -3 -11 12 -10 13 6 7 14 -5 17 -2 12 9 -3 9 -2 13 4 10 6 -3 10
-1 10 4 0 16 7 13 14 -6z m32 6 c4 -8 9 -7 15 2 5 8 9 10 9 4 0 -24 -16 -30
-32 -13 -10 10 -14 18 -9 18 6 0 13 -5 17 -11z m-371 -9 c3 -6 -1 -7 -9 -4
-18 7 -21 14 -7 14 6 0 13 -4 16 -10z m125 0 c0 -5 -4 -10 -10 -10 -5 0 -10 5
-10 10 0 6 5 10 10 10 6 0 10 -4 10 -10z m116 -2 c4 -6 3 -8 -3 -5 -6 4 -14 0
-17 -9 -4 -9 -9 -15 -11 -12 -8 7 5 38 15 38 5 0 12 -5 16 -12z m41 1 c-14 -8
-16 -14 -6 -25 6 -8 8 -14 4 -14 -4 0 1 -8 12 -17 10 -10 17 -17 15 -16 -3 1
-18 -7 -33 -18 -16 -11 -29 -16 -29 -10 0 6 5 11 11 11 5 0 7 5 3 12 -5 8 -2
9 9 5 9 -3 19 -2 22 3 4 6 2 10 -2 10 -5 0 -18 6 -28 14 -19 14 -19 15 -1 35
11 12 24 21 30 21 6 0 3 -5 -7 -11z m-360 -16 c-4 -3 1 -11 10 -18 13 -9 13
-14 3 -20 -9 -5 -11 -4 -6 3 4 7 5 12 2 12 -2 0 -12 3 -22 7 -10 4 -15 2 -11
-3 3 -6 -3 -16 -15 -23 -11 -7 -17 -8 -14 -3 3 6 1 13 -4 15 -6 3 -5 4 2 3 6
-1 20 6 30 16 10 10 21 18 25 18 3 0 3 -3 0 -7z m439 -2 c-4 -5 -1 -12 4 -14
6 -3 5 -4 -2 -3 -7 2 -18 -4 -25 -13 -10 -13 -14 -14 -25 -3 -11 11 -10 12 7
6 11 -4 17 -4 13 1 -4 4 0 14 10 21 20 16 25 17 18 5z m-287 -64 c6 2 8 -4 4
-13 -4 -11 -11 -7 -29 20 -13 19 -24 41 -24 48 0 7 9 -3 19 -22 11 -19 24 -34
30 -33z m-233 45 c-3 -5 4 -19 15 -30 11 -12 16 -22 11 -22 -9 0 -42 43 -42
55 0 3 5 5 11 5 5 0 8 -4 5 -8z m349 -29 c7 6 10 16 7 21 -3 5 0 6 6 2 18 -11
35 -46 22 -46 -5 0 -10 8 -10 18 -1 15 -3 14 -19 -4 -15 -19 -19 -20 -27 -7
-8 14 -11 13 -24 -3 -14 -16 -13 -17 3 -11 10 4 16 3 12 -2 -3 -5 0 -11 7 -13
7 -3 4 -7 -7 -12 -11 -4 -16 -4 -13 0 4 3 -3 15 -15 26 -12 11 -17 17 -12 15
14 -7 38 20 25 28 -6 3 -10 11 -10 17 0 6 9 -1 21 -15 16 -22 23 -24 34 -14z
m-5 27 c0 -5 -4 -10 -10 -10 -5 0 -10 5 -10 10 0 6 5 10 10 10 6 0 10 -4 10
-10z m60 -25 c0 -5 -5 -3 -10 5 -5 8 -10 20 -10 25 0 6 5 3 10 -5 5 -8 10 -19
10 -25z m160 25 c0 -5 -4 -10 -10 -10 -5 0 -10 5 -10 10 0 6 5 10 10 10 6 0
10 -4 10 -10z m-581 -44 c-2 -19 -2 -19 -6 2 -4 22 -6 23 -23 7 -14 -13 -20
-14 -26 -3 -4 7 -4 10 0 6 11 -9 35 15 28 27 -3 6 2 4 11 -4 9 -7 16 -23 16
-35z m195 25 c14 -15 15 -21 4 -27 -7 -4 -10 -4 -6 0 9 11 -14 36 -26 28 -5
-3 -6 0 -2 6 9 15 10 15 30 -7z m69 12 c-7 -2 -19 -2 -25 0 -7 3 -2 5 12 5 14
0 19 -2 13 -5z m342 -3 c-3 -5 -1 -10 4 -10 6 0 11 -8 11 -17 0 -15 -2 -14
-16 3 -15 18 -15 18 -10 0 7 -20 -11 -49 -25 -40 -5 3 -9 0 -9 -7 0 -7 -3 -9
-6 -6 -4 4 -1 13 6 22 9 11 9 15 1 15 -7 0 -9 5 -6 10 3 6 1 10 -4 10 -6 0
-11 6 -11 13 1 6 12 -1 26 -18 17 -19 24 -23 20 -11 -4 10 -1 25 5 32 13 16
23 19 14 4z m-305 -9 c0 -5 -7 -11 -14 -14 -10 -4 -13 -1 -9 9 6 15 23 19 23
5z m-205 -11 c3 -5 1 -10 -4 -10 -6 0 -11 5 -11 10 0 6 2 10 4 10 3 0 8 -4 11
-10z m431 -5 c-3 -8 -1 -15 4 -15 6 0 10 -4 10 -10 0 -17 -14 -11 -28 11 -8
12 -9 18 -3 14 6 -3 11 -1 11 4 0 6 3 11 6 11 3 0 4 -7 0 -15z m-346 -15 c0
-5 -8 -10 -17 -10 -16 -1 -15 -3 4 -19 19 -16 20 -20 7 -25 -13 -5 -14 -9 -4
-21 9 -10 9 -18 0 -32 -9 -15 -10 -14 -4 7 6 22 5 23 -10 11 -10 -9 -16 -10
-16 -2 0 6 5 11 11 11 5 0 8 4 4 9 -3 5 -1 12 4 16 6 3 3 14 -6 25 -12 14 -19
16 -25 8 -4 -7 -2 -16 5 -20 6 -4 8 -10 4 -15 -5 -4 -12 -1 -17 7 -9 15 6 54
18 46 5 -3 14 -1 22 5 19 11 20 11 20 -1z m475 1 c3 -5 0 -13 -6 -17 -7 -4 -9
-3 -5 4 3 5 0 13 -6 15 -9 4 -10 6 -1 6 6 1 14 -3 18 -8z m-679 -10 c-4 -5 -3
-11 1 -14 5 -2 2 -2 -4 -1 -7 2 -13 -1 -13 -6 0 -5 -9 -14 -20 -20 -14 -7 -20
-7 -20 0 0 5 8 10 17 10 9 0 13 3 10 7 -4 3 1 12 11 19 20 16 25 17 18 5z m69
-34 c4 5 5 2 1 -5 -4 -7 -11 -10 -16 -7 -5 3 -11 1 -15 -5 -3 -5 -1 -10 6 -10
7 0 10 -3 7 -6 -8 -7 -48 18 -48 30 0 4 6 3 13 -3 16 -12 27 -5 27 18 0 14 -2
14 -10 1 -11 -18 -13 -9 -3 16 6 16 8 15 18 -9 6 -15 15 -24 20 -20z m30 33
c-3 -5 -14 -10 -23 -10 -15 0 -15 2 -2 10 20 13 33 13 25 0z m141 1 c-4 -5 -1
-11 6 -13 7 -3 5 -7 -6 -11 -11 -5 -15 -3 -10 5 5 8 1 9 -12 5 -18 -7 -18 -7
0 8 23 17 30 19 22 6z m60 -7 c-5 -12 -2 -15 9 -10 9 3 13 2 10 -4 -3 -6 -1
-10 6 -10 7 0 4 -7 -7 -16 -19 -15 -19 -16 1 -9 16 5 18 4 8 -6 -10 -9 -16
-10 -24 -2 -8 8 -8 13 1 18 8 5 6 11 -6 19 -9 7 -14 18 -10 24 11 18 19 14 12
-4z m115 -6 c6 -13 8 -20 4 -16 -4 4 -14 0 -21 -10 -11 -14 -15 -15 -26 -3
-11 12 -10 13 6 7 14 -5 17 -2 12 9 -4 11 -2 14 6 9 8 -5 9 -2 5 9 -9 25 0 21
14 -5z m80 -5 c-8 -15 -10 -15 -11 -2 0 17 10 32 18 25 2 -3 -1 -13 -7 -23z
m203 -64 c-3 -5 -11 -9 -17 -9 -9 0 -8 3 1 8 10 7 8 15 -9 36 -19 25 -22 25
-34 10 -7 -10 -17 -14 -24 -10 -9 6 -9 11 0 22 6 7 15 11 20 8 5 -3 9 0 9 7 0
6 13 -5 30 -26 16 -20 27 -41 24 -46z m-171 64 c-20 -7 -15 -23 5 -16 14 5 15
3 5 -8 -10 -9 -16 -10 -24 -2 -13 13 -4 33 14 32 9 0 9 -2 0 -6z m-253 -44
c-10 -23 -10 -22 -5 5 6 26 4 28 -9 17 -10 -8 -16 -9 -16 -3 0 13 23 22 33 12
4 -3 3 -17 -3 -31z m161 17 c-10 -11 -8 -17 6 -25 10 -6 15 -11 10 -11 -4 0
-16 5 -26 11 -17 11 -17 13 -2 29 19 20 29 17 12 -4z m-438 -9 c3 -8 2 -20 -3
-26 -5 -9 -7 -4 -7 13 0 29 2 32 10 13z m100 -7 c-3 -12 -8 -19 -11 -16 -5 6
5 36 12 36 2 0 2 -9 -1 -20z m133 5 c-3 -8 2 -19 12 -24 11 -7 12 -11 4 -11
-7 0 -11 -4 -8 -9 3 -5 -1 -14 -8 -20 -11 -9 -16 -9 -22 0 -4 7 0 17 9 24 15
11 15 13 -1 30 -9 10 -11 15 -4 11 6 -4 12 -2 12 3 0 6 3 11 6 11 3 0 4 -7 0
-15z m150 -12 c-6 -6 -36 9 -36 18 0 5 9 4 20 -3 10 -7 18 -14 16 -15z m114
17 c19 -10 17 -40 -2 -40 -6 0 -4 7 3 16 12 15 11 16 -11 10 -20 -6 -22 -5
-10 4 12 10 11 11 -8 7 -12 -3 -20 -1 -16 4 7 12 21 11 44 -1z m114 -5 c11 -8
16 -15 10 -15 -5 0 -18 7 -28 15 -11 8 -16 15 -10 15 5 0 18 -7 28 -15z
m-1764 -15 c-9 -5 -9 -9 -1 -14 6 -4 11 -13 11 -19 0 -7 -6 -3 -12 8 -18 29
-18 44 -1 38 11 -4 11 -8 3 -13z m50 13 c0 -17 -19 -37 -27 -29 -4 5 -2 11 5
13 6 3 10 9 6 14 -3 5 0 9 5 9 6 0 11 -3 11 -7z m1045 -3 c3 -5 1 -10 -4 -10
-6 0 -11 5 -11 10 0 6 2 10 4 10 3 0 8 -4 11 -10z m25 -15 c-10 -12 -10 -15 1
-15 10 0 10 -3 1 -12 -9 -9 -16 -8 -30 6 -9 11 -12 16 -5 12 7 -4 18 2 25 13
7 11 14 18 17 16 2 -3 -2 -11 -9 -20z m170 15 c0 -5 -2 -10 -4 -10 -3 0 -8 5
-11 10 -3 6 -1 10 4 10 6 0 11 -4 11 -10z m420 -1 c-12 -9 -10 -10 9 -5 17 3
21 2 13 -6 -5 -5 -20 -7 -32 -3 -18 6 -20 9 -9 16 20 13 37 11 19 -2z m115 1
c3 -6 -1 -7 -9 -4 -18 7 -21 14 -7 14 6 0 13 -4 16 -10z m-1725 -40 c0 -6 -5
-10 -11 -10 -5 0 -7 5 -3 11 4 8 -1 9 -17 5 -13 -3 -18 -3 -11 0 6 3 9 10 6
16 -4 6 2 5 15 -1 11 -7 21 -16 21 -21z m1077 11 c0 -11 -5 -17 -9 -15 -4 3
-8 -2 -8 -10 0 -9 -5 -16 -10 -16 -6 0 -4 13 5 30 18 35 24 38 22 11z m123
-13 c0 -5 -4 -8 -10 -8 -5 0 -10 4 -10 10 0 5 -6 8 -12 6 -7 -1 -10 -1 -5 1 4
3 4 9 1 15 -3 5 3 4 15 -4 12 -7 21 -16 21 -20z m185 22 c10 9 15 9 15 1 0 -6
-5 -11 -11 -11 -5 0 -8 -4 -5 -8 2 -4 -4 -8 -14 -8 -10 0 -16 4 -14 8 3 4 0 8
-5 8 -6 0 -11 5 -11 11 0 8 5 8 15 -1 12 -10 18 -10 30 0z m96 -7 c7 -10 9
-15 5 -11 -5 4 -15 3 -23 -3 -7 -6 -13 -8 -13 -4 0 4 -9 -3 -21 -16 -11 -13
-18 -18 -14 -11 3 6 1 12 -4 12 -6 0 -11 5 -11 11 0 8 5 8 15 -1 18 -15 20 0
3 20 -11 12 -10 12 3 2 14 -10 18 -10 23 3 7 20 20 19 37 -2z m235 5 c5 -8 2
-9 -10 -5 -14 6 -17 3 -12 -8 3 -9 2 -13 -4 -10 -6 3 -10 0 -10 -7 0 -8 -5 -6
-11 5 -6 9 -14 15 -20 12 -5 -4 -9 -1 -9 4 0 14 17 14 26 0 5 -8 10 -6 16 5
11 19 24 21 34 4z m-583 -23 c-4 -11 0 -14 13 -9 15 6 16 4 7 -6 -15 -16 -32
-5 -30 20 1 10 5 17 9 14 4 -3 5 -11 1 -19z m393 10 c-3 -8 -1 -15 4 -15 5 0
14 -10 21 -21 6 -13 7 -19 1 -15 -6 3 -13 0 -16 -6 -3 -7 -3 -2 0 11 3 13 2
21 -3 18 -5 -3 -15 3 -22 15 -7 11 -8 17 -2 13 6 -3 11 -1 11 4 0 6 3 11 6 11
3 0 4 -7 0 -15z m49 -4 c-3 -6 -11 -11 -16 -11 -5 0 -4 6 3 14 14 16 24 13 13
-3z m-1515 -1 c0 -5 -4 -10 -10 -10 -5 0 -10 5 -10 10 0 6 5 10 10 10 6 0 10
-4 10 -10z m1280 -11 c0 -5 -8 -9 -17 -9 -12 0 -14 -3 -7 -10 8 -8 19 -7 38 1
19 9 29 10 38 1 8 -8 5 -9 -13 -6 -20 5 -21 4 -9 -6 12 -9 10 -10 -10 -4 -22
6 -23 5 -11 -10 9 -10 10 -16 2 -16 -6 0 -11 5 -11 11 0 5 -4 7 -10 4 -5 -3
-10 -1 -10 6 0 8 -4 8 -15 -1 -9 -7 -18 -10 -22 -6 -3 3 -1 6 6 6 7 0 10 4 6
9 -3 5 4 16 15 24 11 7 17 17 12 22 -4 5 -1 5 6 1 6 -4 12 -11 12 -17z m284 9
c-3 -4 0 -8 5 -8 6 0 11 -5 11 -11 0 -8 -5 -8 -15 1 -12 10 -18 10 -30 0 -10
-9 -15 -9 -15 -1 0 6 5 11 11 11 5 0 8 4 5 8 -2 4 4 8 14 8 10 0 16 -4 14 -8z
m145 -14 c-6 -8 -17 -14 -23 -14 -6 0 -3 7 6 14 10 7 14 17 10 21 -4 5 -1 5 6
1 10 -6 10 -11 1 -22z m91 16 c0 -5 -5 -10 -11 -10 -5 0 -7 5 -4 10 3 6 8 10
11 10 2 0 4 -4 4 -10z m-128 -7 c-6 -2 -9 -10 -6 -15 4 -7 2 -8 -4 -4 -7 4
-12 1 -12 -9 0 -8 -7 -18 -15 -21 -8 -4 -12 -11 -8 -17 3 -6 1 -7 -5 -3 -18
11 -35 46 -22 46 5 0 10 -7 10 -15 0 -9 6 -12 15 -9 8 4 15 12 15 18 0 15 21
36 35 35 5 0 4 -3 -3 -6z m-1772 -14 c0 -5 5 -7 10 -4 6 3 10 1 10 -4 0 -6 -5
-11 -11 -11 -5 0 -7 -5 -3 -11 4 -7 -2 -7 -17 1 -34 18 -38 24 -9 15 22 -7 23
-6 11 9 -9 10 -10 16 -2 16 6 0 11 -5 11 -11z m1075 -14 c-1 -15 4 -29 14 -35
26 -15 2 -11 -29 5 -34 18 -37 30 -12 44 26 16 30 13 27 -14z m439 1 c-7 -19
-20 -21 -30 -4 -4 6 -3 8 3 5 6 -4 14 0 17 9 4 9 9 15 11 12 3 -3 3 -13 -1
-22z m-1567 8 c-3 -3 -12 -4 -19 -1 -8 3 -5 6 6 6 11 1 17 -2 13 -5z m107 -2
c-6 -4 -14 -16 -17 -26 -4 -10 -10 -16 -13 -13 -9 8 15 47 29 47 8 0 9 -3 1
-8z m1097 -1 c9 -1 6 -61 -3 -61 -5 0 -6 4 -3 10 4 6 -1 7 -12 3 -16 -6 -16
-4 2 17 11 13 14 20 6 15 -10 -6 -12 -4 -6 5 5 9 4 11 -4 6 -6 -4 -9 -11 -6
-16 9 -14 -13 -22 -32 -12 -14 9 -14 10 6 17 11 3 19 10 16 15 -3 4 3 7 12 5
10 -2 21 -4 24 -4z m83 -2 c4 6 13 11 19 11 7 0 4 -5 -6 -11 -9 -6 -15 -14
-12 -20 4 -5 -1 -12 -10 -15 -14 -6 -14 -8 1 -25 9 -10 20 -16 24 -14 4 3 13
-2 20 -10 7 -8 17 -15 22 -15 6 0 5 6 -2 14 -9 11 -9 19 0 33 9 15 10 14 4 -7
-6 -22 -5 -23 10 -11 10 9 16 10 16 2 0 -6 -4 -11 -9 -11 -8 0 -8 -23 0 -40 4
-9 7 -24 8 -45 1 -17 3 -18 12 -5 8 13 10 12 7 -4 -2 -11 -13 -21 -27 -23 -20
-3 -22 -1 -11 11 14 18 4 40 -16 32 -16 -6 -17 -4 -8 18 3 9 10 16 16 16 5 0
6 -5 2 -12 -4 -7 -3 -8 5 -4 18 12 1 27 -22 21 -13 -4 -17 -3 -11 2 9 6 8 12
-2 21 -12 11 -14 10 -10 -12 3 -15 -1 -26 -9 -30 -10 -4 -13 3 -10 24 2 17 -1
33 -7 36 -6 4 -8 2 -4 -4 3 -6 2 -13 -3 -16 -5 -3 -11 1 -15 9 -3 8 -1 15 5
15 6 0 7 5 3 11 -5 8 -9 8 -14 -1 -4 -7 -12 -10 -18 -6 -6 4 -8 -2 -5 -14 6
-24 -4 -26 -29 -3 -15 13 -21 14 -31 4 -9 -10 -8 -15 6 -26 14 -10 15 -14 5
-19 -10 -5 -10 -7 0 -12 6 -3 12 -10 12 -15 0 -6 -4 -8 -9 -4 -19 11 -24 -18
-5 -32 18 -13 17 -14 -11 -9 -16 2 -32 5 -35 5 -3 1 1 5 9 10 8 5 14 26 14 50
0 47 -8 60 -26 41 -10 -10 -9 -11 3 -5 8 5 12 4 7 0 -12 -14 -44 -13 -44 1 0
7 6 10 13 7 7 -2 11 3 11 14 -2 18 9 20 78 11 14 -2 20 3 20 16 0 21 20 33 29
17 4 -6 13 -8 21 -5 8 4 12 10 9 15 -3 5 -10 7 -15 4 -10 -7 -12 8 -2 18 4 4
10 2 14 -4 5 -8 8 -8 13 0z m62 -9 c5 1 10 -4 12 -12 3 -11 2 -11 -6 0 -5 8
-13 13 -18 12 -5 -1 -10 4 -12 12 -3 11 -2 11 6 0 5 -8 13 -13 18 -12z m249 0
c-3 -5 -1 -10 4 -10 6 0 11 -5 11 -11 0 -8 -6 -7 -16 2 -15 12 -16 11 -10 -11
6 -20 5 -22 -4 -10 -10 12 -11 11 -6 -9 3 -17 2 -21 -6 -13 -12 12 7 72 24 72
5 0 6 -4 3 -10z m120 1 c3 -5 0 -13 -5 -16 -7 -5 -5 -11 6 -19 10 -8 14 -18
10 -25 -6 -9 -11 -9 -22 0 -7 6 -11 15 -8 20 3 5 0 9 -7 9 -7 0 -4 7 7 16 17
14 17 15 1 10 -11 -3 -16 -2 -12 4 8 13 22 13 30 1z m160 -1 c-3 -5 -11 -10
-16 -10 -6 0 -7 5 -4 10 3 6 11 10 16 10 6 0 7 -4 4 -10z m-549 -39 c-9 -13
-36 -15 -36 -2 0 6 5 13 10 16 6 4 7 12 4 18 -4 7 1 5 11 -5 9 -9 14 -21 11
-27z m341 20 c0 -11 -4 -18 -8 -15 -4 2 -9 -2 -12 -8 -2 -7 -8 -10 -11 -6 -4
3 1 15 11 26 23 26 22 26 20 3z m181 -14 c16 -33 32 -35 26 -4 -4 20 -4 20 5
2 5 -11 5 -24 0 -29 -10 -11 -39 11 -39 30 0 8 -5 13 -11 12 -6 -2 -14 3 -16
11 -10 25 22 6 35 -22z m-1822 8 c4 -8 11 -12 16 -9 6 4 5 -3 -1 -15 -14 -25
-23 -28 -14 -4 4 11 3 14 -5 9 -8 -5 -10 -2 -6 9 5 11 2 14 -12 8 -12 -4 -15
-3 -10 5 10 16 26 15 32 -3z m1514 5 c13 -8 13 -10 -2 -10 -9 0 -20 5 -23 10
-8 13 5 13 25 0z m210 -25 c0 -5 -5 -3 -10 5 -5 8 -10 20 -10 25 0 6 5 3 10
-5 5 -8 10 -19 10 -25z m-268 11 c5 3 4 -3 -3 -14 -7 -12 -17 -18 -21 -16 -10
6 -5 -32 5 -42 12 -12 8 -24 -7 -24 -20 0 -31 19 -18 32 6 6 8 17 5 24 -3 8 2
16 10 20 9 3 15 11 13 17 -1 7 -1 9 1 4 3 -4 9 -4 15 -1z m-72 -6 c0 -5 6 -8
13 -6 6 1 9 1 4 -1 -4 -3 -4 -9 -1 -15 3 -5 -3 -4 -15 4 -22 14 -28 28 -11 28
6 0 10 -4 10 -10z m113 -30 c-3 -3 -8 1 -10 8 -3 6 -9 10 -14 7 -5 -4 -6 1 -3
10 6 14 8 14 19 -2 8 -10 11 -20 8 -23z m287 29 c0 -5 5 -7 10 -4 6 3 10 1 10
-4 0 -13 -3 -13 -24 -5 -18 7 -22 24 -6 24 6 0 10 -5 10 -11z m-120 -24 c7 -9
10 -18 7 -22 -4 -3 -1 -13 6 -22 11 -14 10 -14 -5 -2 -12 9 -18 10 -18 2 0
-12 43 -33 69 -35 21 -1 24 -23 5 -30 -14 -5 -15 -4 -4 9 12 14 10 15 -14 11
-15 -3 -24 -1 -21 5 4 5 0 9 -8 9 -23 0 -42 29 -29 42 17 17 15 33 -3 18 -8
-7 -15 -9 -15 -5 0 4 -9 -3 -21 -16 -11 -13 -18 -18 -14 -11 3 6 1 12 -4 12
-6 0 -11 5 -11 11 0 8 5 8 15 -1 10 -8 15 -9 15 -2 0 6 -8 16 -17 21 -10 6
-13 11 -6 11 6 0 15 -5 19 -11 5 -8 10 -6 16 5 11 20 22 20 38 1z m74 -9 c-7
-19 -20 -21 -30 -4 -4 6 -3 8 3 5 6 -4 14 0 17 9 4 9 9 15 11 12 3 -3 3 -13
-1 -22z m-1765 -30 c-9 -8 -10 -7 -5 7 3 10 7 24 7 30 1 7 3 4 6 -7 3 -10 -1
-23 -8 -30z m1382 17 c-12 -20 -14 -14 -5 12 4 9 9 14 11 11 3 -2 0 -13 -6
-23z m206 -8 c-9 -7 -13 -16 -9 -20 4 -5 1 -5 -5 -1 -19 10 -36 46 -23 46 5 0
10 -7 10 -15 0 -20 30 -7 31 14 0 12 2 13 6 2 3 -8 -2 -20 -10 -26z m215 21
c6 4 5 -2 -1 -15 -7 -11 -16 -21 -21 -21 -5 0 -8 -6 -6 -12 1 -7 1 -10 -1 -5
-3 4 -9 4 -15 1 -5 -3 -4 3 3 14 7 12 17 18 22 15 5 -3 6 5 3 18 -3 13 -3 18
0 11 3 -6 10 -9 16 -6z m-1732 -6 c0 -5 -7 -7 -15 -4 -8 4 -15 8 -15 10 0 2 7
4 15 4 8 0 15 -4 15 -10z m60 0 c0 -5 -4 -10 -10 -10 -5 0 -10 5 -10 10 0 6 5
10 10 10 6 0 10 -4 10 -10z m1073 -7 c18 -17 19 -17 33 2 8 10 14 16 14 13 0
-4 2 -13 5 -20 4 -9 -2 -14 -16 -15 -12 -1 -27 -7 -33 -13 -8 -8 -6 -9 9 -4
20 7 20 7 2 -14 -11 -12 -16 -26 -11 -33 5 -9 2 -10 -10 -6 -10 4 -20 7 -22 7
-2 0 -4 5 -4 10 0 6 6 9 13 8 8 -2 11 8 11 27 -3 45 -3 47 -14 40 -5 -3 -10
-1 -10 4 0 16 11 13 33 -6z m203 -9 c-4 -9 -9 -15 -11 -12 -3 3 -3 13 1 22 4
9 9 15 11 12 3 -3 3 -13 -1 -22z m104 16 c8 -5 11 -10 5 -10 -5 0 -17 5 -25
10 -8 5 -10 10 -5 10 6 0 17 -5 25 -10z m343 4 c8 -8 -3 -34 -15 -34 -6 0 -5
6 2 15 15 18 0 20 -20 3 -12 -11 -12 -10 -1 5 14 18 24 21 34 11z m54 -24 c3
-19 2 -19 -15 -2 -11 11 -14 20 -8 24 13 9 19 3 23 -22z m-1865 -7 c-6 -3 -10
-8 -8 -12 3 -4 -4 -7 -15 -7 -19 0 -18 1 3 17 12 10 25 15 28 12 3 -3 -1 -8
-8 -10z m65 5 c12 -16 24 -48 17 -48 -2 0 -9 11 -14 25 -5 14 -15 25 -21 25
-8 0 -7 -6 2 -17 13 -16 12 -17 -3 -5 -14 11 -18 10 -27 -5 -6 -10 -11 -14
-11 -9 0 11 30 46 40 46 4 0 12 -6 17 -12z m1163 -22 c-5 -14 -13 -26 -17 -25
-20 3 -34 -2 -28 -11 3 -5 1 -10 -4 -10 -16 0 -14 9 9 37 12 16 20 20 21 12 0
-8 5 -4 11 9 15 30 21 21 8 -12z m230 24 c13 -8 13 -10 -2 -10 -9 0 -20 5 -23
10 -8 13 5 13 25 0z m33 -7 c-4 -11 -3 -14 5 -9 8 5 10 2 6 -9 -5 -11 -2 -14
12 -9 16 6 17 5 6 -7 -11 -12 -15 -11 -26 3 -7 10 -17 14 -21 10 -4 -4 -2 3 4
16 14 26 23 30 14 5z m207 7 c13 -8 13 -10 -2 -10 -9 0 -20 5 -23 10 -8 13 5
13 25 0z m-600 -16 c-10 -11 -10 -14 1 -14 11 0 11 -2 -1 -10 -8 -5 -10 -10
-5 -10 6 0 -1 -9 -15 -20 -14 -11 -17 -18 -8 -14 10 3 20 -2 27 -15 14 -26 14
-28 -4 -28 -8 0 -14 7 -13 15 4 20 -29 24 -37 4 -5 -13 -8 -14 -14 -3 -6 9
-11 10 -15 2 -4 -6 -4 -11 1 -11 4 0 9 -11 9 -25 2 -21 -1 -23 -16 -15 -13 7
-20 6 -22 -2 -2 -6 -9 -8 -16 -4 -6 3 -8 14 -5 22 5 13 7 13 14 2 5 -7 9 -8 9
-2 0 6 11 27 25 47 13 21 20 39 14 42 -5 4 -6 11 -3 17 4 7 14 2 24 -12 l18
-23 0 26 c0 15 -4 24 -9 21 -5 -3 -9 -1 -9 5 0 10 13 16 42 18 16 2 17 -1 8
-13z m742 2 c6 4 5 -2 -1 -15 -14 -25 -23 -28 -14 -4 4 11 3 14 -5 9 -8 -5
-10 -1 -5 10 4 11 8 13 11 6 2 -7 8 -9 14 -6z m-1927 -6 c-3 -5 -12 -10 -18
-10 -7 0 -6 4 3 10 19 12 23 12 15 0z m1655 0 c0 -5 -4 -10 -10 -10 -5 0 -10
5 -10 10 0 6 5 10 10 10 6 0 10 -4 10 -10z m60 -25 c0 -5 -5 -3 -10 5 -5 8
-10 20 -10 25 0 6 5 3 10 -5 5 -8 10 -19 10 -25z m160 25 c8 -5 11 -10 5 -10
-5 0 -17 5 -25 10 -8 5 -10 10 -5 10 6 0 17 -5 25 -10z m-514 -26 c2 -23 1
-24 -12 -7 -11 13 -14 14 -12 3 2 -9 -5 -15 -17 -15 -11 -1 -19 -6 -18 -13 2
-6 -4 -9 -12 -6 -13 5 -20 -6 -16 -28 0 -4 -12 -5 -28 -3 l-29 3 20 -34 c11
-19 18 -38 14 -41 -3 -4 -6 -1 -6 6 0 8 -5 9 -19 2 -10 -6 -21 -7 -25 -4 -3 3
-6 0 -6 -7 0 -17 -13 -5 -16 15 -1 10 6 13 27 10 25 -3 27 -2 17 15 -7 10 -16
16 -21 13 -5 -3 -4 -9 2 -12 6 -4 -10 -7 -36 -6 -54 2 -63 19 -23 42 22 13 23
13 8 0 -25 -20 -23 -23 15 -22 28 1 32 5 30 26 -1 13 1 18 3 12 4 -9 11 -10
25 -3 10 6 19 8 19 4 0 -4 11 5 25 20 14 15 25 25 25 22 0 -3 15 3 33 14 17
11 32 20 32 20 0 0 1 -11 1 -26z m78 15 c-4 -8 0 -9 15 -4 13 4 21 2 21 -5 0
-6 5 -8 11 -4 8 4 8 0 0 -15 -13 -24 -7 -43 13 -35 7 3 13 -2 13 -11 0 -11 -6
-14 -16 -9 -9 3 -23 7 -31 8 -8 0 -19 6 -23 11 -5 6 -6 1 -3 -11 5 -14 2 -21
-9 -21 -18 0 -18 2 -4 28 7 13 16 18 27 14 9 -3 13 -3 9 1 -4 4 -2 13 4 20 7
8 7 14 -1 19 -6 4 -10 3 -9 -2 3 -20 -2 -22 -19 -5 -19 17 -19 32 -1 32 6 0 7
-5 3 -11z m-1304 -27 c0 -15 -2 -15 -10 -2 -13 20 -13 33 0 25 6 -3 10 -14 10
-23z m1425 12 c17 -13 18 -16 5 -24 -8 -5 -18 -10 -22 -10 -5 0 -8 -5 -8 -11
0 -6 7 -8 16 -5 8 3 12 2 9 -4 -3 -6 -1 -10 4 -10 6 0 11 6 11 14 0 21 20 30
33 16 9 -10 8 -12 -7 -6 -14 5 -17 2 -12 -9 3 -8 2 -15 -3 -15 -4 0 -8 -7 -8
-15 0 -20 5 -19 29 8 l20 22 -16 -27 c-9 -16 -12 -28 -7 -28 6 0 15 8 20 18 6
9 11 12 11 7 0 -6 -6 -17 -12 -24 -11 -12 -9 -13 7 -7 11 4 16 4 13 0 -11 -10
15 -32 32 -27 8 3 5 -2 -7 -11 -22 -16 -58 -12 -47 6 3 5 13 4 22 -4 15 -12
16 -11 3 5 -11 14 -16 15 -29 5 -13 -11 -15 -10 -9 5 4 10 3 16 -2 12 -5 -3
-11 0 -13 6 -3 9 -12 7 -29 -5 -24 -15 -39 -13 -39 5 0 5 6 6 14 3 8 -3 19 3
25 15 10 17 9 20 -5 14 -13 -5 -15 -3 -9 8 8 12 6 12 -8 0 -11 -9 -17 -10 -18
-2 -1 6 -2 15 -3 21 0 5 -7 15 -13 22 -10 10 -13 9 -13 -2 0 -7 -3 -11 -6 -7
-3 3 1 16 11 29 14 19 16 20 13 4 -2 -10 3 -21 10 -23 8 -3 10 2 6 14 -5 15
-4 15 5 3 5 -8 14 -11 18 -6 4 4 -1 14 -11 22 -11 8 -16 14 -10 14 5 0 18 -7
29 -16z m145 -19 c12 -19 19 -41 17 -48 -3 -7 -6 -5 -6 6 -1 9 -4 16 -8 16
-20 -3 -33 2 -33 12 0 8 5 8 15 -1 8 -7 15 -8 15 -2 0 5 -7 15 -15 22 -14 12
-21 30 -11 30 2 0 14 -16 26 -35z m150 24 c0 -5 4 -7 10 -4 6 3 8 -2 4 -12 -4
-16 -4 -16 7 -2 11 15 14 15 30 -5 16 -18 18 -19 19 -3 0 20 16 23 26 5 4 -7
4 -10 -1 -6 -4 4 -13 1 -20 -8 -10 -15 -13 -15 -27 -1 -10 10 -19 12 -25 6 -7
-7 -16 -1 -27 15 -9 15 -12 26 -6 26 5 0 10 -5 10 -11z m117 -4 c0 -8 -4 -12
-9 -9 -4 3 -8 9 -8 15 0 5 4 9 8 9 5 0 9 -7 9 -15z m58 6 c3 -5 2 -12 -3 -15
-5 -3 -9 1 -9 9 0 17 3 19 12 6z m-1941 -10 c4 -5 -4 -7 -16 -4 -19 4 -20 3
-8 -6 9 -7 10 -11 3 -11 -15 0 -25 15 -16 24 9 9 31 7 37 -3z m1556 -14 c0 -7
-4 -6 -10 3 -8 12 -10 12 -10 1 0 -8 -3 -12 -6 -8 -9 9 6 28 17 22 5 -4 9 -12
9 -18z m17 -9 c-3 -7 -5 -2 -5 12 0 14 2 19 5 13 2 -7 2 -19 0 -25z m-267 13
c0 -6 -5 -13 -10 -16 -8 -5 -7 -11 1 -21 8 -9 15 -11 18 -5 4 6 7 -12 8 -40 1
-42 -1 -47 -12 -33 -7 10 -17 14 -25 9 -8 -5 -11 -3 -8 6 3 8 10 14 16 14 5 0
14 4 19 9 4 5 3 6 -4 2 -6 -3 -14 -2 -18 4 -3 5 -1 10 6 10 8 0 8 4 -1 15 -7
9 -15 13 -18 10 -3 -3 -12 1 -21 8 -14 11 -14 10 -2 -5 15 -20 2 -25 -16 -7
-11 11 -23 -2 -35 -36 -1 -5 -11 -9 -20 -9 -10 1 -15 -3 -12 -7 3 -5 10 -7 15
-4 11 8 11 -6 0 -24 -7 -11 -11 -8 -16 10 -5 13 -7 26 -6 28 2 2 -3 8 -11 13
-8 5 -4 6 13 2 15 -3 30 -1 33 5 4 6 2 11 -5 11 -15 0 -2 15 14 15 7 1 11 5
10 11 -1 5 10 10 25 11 48 1 53 3 47 13 -3 6 -1 10 4 10 6 0 11 -4 11 -9z
m350 -1 c0 -5 -4 -10 -10 -10 -5 0 -10 5 -10 10 0 6 5 10 10 10 6 0 10 -4 10
-10z m104 -30 c-6 -5 -24 21 -24 34 0 6 6 1 14 -10 8 -10 12 -21 10 -24z
m-1734 20 c0 -5 -8 -10 -17 -10 -15 0 -16 2 -3 10 19 12 20 12 20 0z m1655
-10 c-3 -5 -14 -10 -23 -10 -15 0 -15 2 -2 10 20 13 33 13 25 0z m190 -14
c-12 -9 -15 -15 -7 -20 7 -4 12 -17 12 -28 0 -21 0 -21 20 -3 18 17 20 17 14
2 -3 -9 -10 -17 -16 -17 -5 0 -6 -6 -2 -12 5 -9 2 -9 -9 1 -9 7 -17 21 -17 30
0 9 -5 22 -12 29 -9 9 -8 15 8 26 10 8 21 12 23 10 3 -2 -4 -10 -14 -18z
m-1885 3 c0 -5 5 -7 11 -4 6 4 5 -2 -3 -14 -17 -28 -24 -27 -24 4 0 14 4 25 8
25 4 0 8 -5 8 -11z m1754 -5 c4 -10 2 -13 -6 -8 -8 5 -9 2 -5 -9 9 -24 0 -21
-14 4 -8 15 -8 19 0 15 6 -4 11 -2 11 3 0 16 7 13 14 -5z m-152 -12 c-7 -2 -9
-8 -6 -14 3 -5 -3 -4 -15 3 -22 15 -9 31 18 21 10 -4 11 -7 3 -10z m112 2 c3
-8 2 -12 -4 -9 -6 3 -10 1 -10 -4 0 -6 -5 -11 -10 -11 -6 0 -5 8 2 20 15 24
14 24 22 4z m106 6 c0 -5 -4 -10 -10 -10 -5 0 -10 5 -10 10 0 6 5 10 10 10 6
0 10 -4 10 -10z m-535 -10 c13 11 15 10 12 -6 -1 -11 -6 -25 -10 -31 -10 -16
1 -36 14 -27 6 3 16 -2 23 -12 13 -17 14 -16 25 4 7 14 8 22 2 22 -6 0 -8 7
-4 16 5 15 7 15 15 0 5 -10 5 -23 0 -32 -5 -9 -7 -26 -5 -38 4 -17 3 -18 -6
-6 -9 13 -11 13 -11 -2 0 -10 0 -21 1 -24 0 -4 -5 -11 -13 -16 -13 -10 -1 -7
39 9 10 4 14 3 9 -5 -3 -6 -2 -13 3 -16 5 -4 13 -1 17 5 3 6 0 15 -7 20 -8 5
-12 9 -9 10 3 0 13 2 23 4 13 2 17 -1 13 -12 -4 -9 -1 -23 6 -31 11 -13 10
-15 -4 -9 -10 3 -20 1 -24 -5 -4 -7 -9 -6 -15 3 -4 7 -20 13 -36 14 -16 0 -27
6 -25 13 1 7 -3 12 -10 12 -6 0 -4 6 6 13 18 13 12 52 -7 40 -6 -4 -7 -1 -2 7
6 9 4 11 -5 5 -7 -4 -16 -2 -22 6 -8 11 -9 10 -4 -4 3 -11 2 -16 -4 -12 -6 3
-10 1 -10 -5 0 -7 7 -10 15 -6 19 7 45 -3 45 -16 0 -7 -5 -6 -13 1 -10 8 -17
7 -25 -1 -6 -6 -15 -9 -18 -5 -10 10 -14 78 -4 72 5 -3 12 0 15 6 12 18 -3 22
-24 7 -12 -8 -18 -18 -14 -21 3 -4 1 -7 -5 -7 -14 0 -16 13 -4 24 7 7 8 11 11
37 1 8 6 8 16 -1 12 -10 18 -10 30 0z m580 -37 c9 -20 13 -38 11 -40 -2 -3
-10 11 -17 31 -12 34 -14 35 -31 19 -10 -9 -18 -12 -18 -7 0 5 -5 2 -11 -6 -9
-13 -10 -12 -5 3 3 9 0 17 -6 17 -6 0 -8 3 -5 6 4 4 12 2 19 -4 15 -11 42 10
30 24 -4 4 -1 4 6 0 7 -4 19 -24 27 -43z m50 38 c3 -5 0 -13 -6 -17 -7 -4 -9
-3 -5 4 3 5 0 13 -6 15 -9 4 -10 6 -1 6 6 1 14 -3 18 -8z m-1961 -9 c3 -5 -1
-9 -9 -9 -8 0 -12 4 -9 9 3 4 7 8 9 8 2 0 6 -4 9 -8z m101 -2 c8 -13 -5 -13
-25 0 -13 8 -13 10 2 10 9 0 20 -4 23 -10z m1378 -7 c9 -3 17 -9 17 -14 0 -14
-28 -11 -33 4 -2 6 -8 8 -13 4 -5 -4 -2 -13 6 -18 12 -9 12 -10 -3 -5 -11 4
-16 2 -12 -5 4 -6 14 -8 22 -5 9 4 22 1 30 -6 22 -18 41 -18 48 0 6 15 8 15
21 -2 18 -25 18 -33 -1 -33 -11 0 -14 7 -10 21 3 12 -3 6 -13 -12 -10 -18 -21
-30 -25 -26 -4 4 -2 13 4 20 8 9 4 12 -15 10 -18 -2 -23 1 -19 13 4 12 3 13
-5 3 -13 -19 -16 -19 -36 -3 -13 11 -16 11 -14 1 2 -7 -3 -15 -10 -17 -11 -4
-12 -1 -3 16 7 12 9 25 6 30 -10 17 7 42 24 35 9 -3 24 -9 34 -11z m190 0 c-4
-10 -2 -14 4 -10 13 8 11 -39 -2 -51 -4 -4 -4 4 0 18 7 22 6 23 -9 11 -10 -9
-16 -10 -16 -2 0 6 5 11 11 11 5 0 7 5 4 10 -3 6 -3 15 0 20 10 16 15 12 8 -7z
m143 -8 c-3 -8 -1 -15 4 -15 6 0 10 -5 10 -10 0 -6 -7 -6 -19 2 -14 9 -16 14
-7 24 15 18 19 17 12 -1z m-1726 -5 c8 -5 11 -10 5 -10 -5 0 -17 5 -25 10 -8
5 -10 10 -5 10 6 0 17 -5 25 -10z m1435 0 c3 -5 1 -10 -4 -10 -6 0 -11 5 -11
10 0 6 2 10 4 10 3 0 8 -4 11 -10z m113 -15 c-3 -3 -9 2 -12 12 -6 14 -5 15 5
6 7 -7 10 -15 7 -18z m82 15 c0 -5 -4 -10 -10 -10 -5 0 -10 5 -10 10 0 6 5 10
10 10 6 0 10 -4 10 -10z m30 -15 c-19 -14 -30 -25 -26 -25 5 0 3 -6 -3 -13 -6
-8 -7 -18 -3 -23 4 -4 -1 -2 -10 5 -24 18 -22 29 7 43 13 6 22 15 18 21 -3 6
-1 7 5 3 6 -3 13 -2 17 4 3 5 11 10 18 10 6 0 -4 -11 -23 -25z m-1670 -13 c-7
-3 -19 3 -28 13 -16 15 -15 16 12 4 15 -7 23 -15 16 -17z m42 -21 c-4 -10 -7
-11 -10 -3 -2 7 -8 9 -14 6 -5 -3 -4 3 3 15 15 22 31 9 21 -18z m1668 11 c0
-15 -2 -15 -10 -2 -13 20 -13 33 0 25 6 -3 10 -14 10 -23z m97 21 c-4 -3 1
-12 11 -19 14 -11 15 -15 3 -26 -12 -11 -13 -10 -7 6 5 14 2 17 -9 12 -11 -4
-14 -2 -9 6 5 8 1 9 -12 5 -18 -7 -18 -7 0 8 20 15 35 21 23 8z m-1871 -18
c-3 -8 -1 -15 4 -15 6 0 10 -5 10 -10 0 -6 -7 -6 -19 2 -14 9 -16 14 -7 24 15
18 19 17 12 -1z m1744 -25 c-23 -15 -37 -11 -18 4 10 7 16 15 14 18 -1 3 2 1
8 -4 8 -6 6 -12 -4 -18z m225 20 c3 -5 1 -10 -4 -10 -6 0 -11 5 -11 10 0 6 2
10 4 10 3 0 8 -4 11 -10z m-125 -16 c0 -2 -7 -4 -15 -4 -8 0 -15 4 -15 10 0 5
7 7 15 4 8 -4 15 -8 15 -10z m-400 -28 c0 -5 -8 -2 -17 5 -10 9 -14 9 -10 2 5
-7 -1 -16 -12 -22 -31 -17 -31 -13 -3 19 24 28 41 26 42 -4z m31 19 c11 4 15
-3 16 -30 1 -31 -1 -34 -16 -23 -14 11 -14 11 -3 -3 7 -9 10 -25 6 -35 -4 -14
-3 -15 4 -5 6 8 12 9 16 3 8 -13 -10 -25 -25 -16 -6 3 -15 0 -20 -7 -5 -8 -9
-9 -9 -3 0 6 7 17 15 24 12 10 13 16 4 27 -9 10 -7 18 7 35 11 12 13 18 5 13
-13 -7 -31 9 -31 30 0 6 4 4 8 -3 5 -7 15 -10 23 -7z m457 -12 c0 -21 -2 -23
-10 -9 -5 9 -6 21 -3 26 10 16 13 12 13 -17z m-1937 -11 c-6 -2 -9 -8 -5 -13
3 -5 1 -9 -4 -9 -6 0 -9 11 -8 24 1 19 4 22 15 13 9 -8 10 -12 2 -15z m1659
15 c0 -7 -9 -13 -20 -14 -25 -2 -27 14 -2 20 9 3 18 5 20 6 1 0 2 -5 2 -12z
m123 -2 c-25 -10 -31 -19 -27 -32 5 -15 4 -16 -5 -3 -6 8 -11 18 -11 21 0 8
42 28 60 28 8 0 0 -6 -17 -14z m-2032 -12 c13 -16 12 -17 -3 -4 -10 7 -18 15
-18 17 0 8 8 3 21 -13z m1863 -2 c15 -17 15 -19 0 -32 -13 -11 -15 -11 -14 2
5 31 0 38 -27 33 -15 -3 -34 -10 -42 -15 -13 -8 -12 -9 4 -4 16 4 21 0 21 -15
0 -11 -4 -20 -8 -20 -4 0 -8 5 -8 11 0 5 -4 8 -9 5 -5 -3 -14 1 -20 8 -10 11
-8 16 9 21 11 3 18 9 16 13 -10 17 63 10 78 -7z m69 -6 c-3 -10 1 -15 12 -15
9 0 13 5 10 11 -4 6 2 5 13 -2 12 -7 18 -17 16 -21 -3 -4 1 -8 8 -8 10 0 10
-2 1 -8 -9 -6 -6 -11 8 -20 19 -12 20 -11 14 10 -5 21 -5 22 8 6 8 -10 17 -16
21 -13 3 3 2 0 -2 -6 -5 -5 -23 -12 -40 -14 -27 -3 -30 -1 -28 20 2 13 -2 22
-8 21 -6 -2 -8 -1 -3 1 4 3 7 9 7 15 0 6 -7 5 -16 -3 -13 -10 -17 -10 -24 1
-5 8 -12 11 -17 7 -4 -5 -1 -12 7 -17 8 -6 13 -10 10 -11 -3 0 -16 -3 -30 -5
-19 -4 -22 -2 -12 8 6 6 12 16 12 21 0 5 -9 -1 -20 -14 -10 -13 -19 -20 -20
-16 0 11 40 63 46 60 12 -8 24 -1 18 9 -4 7 -3 8 4 4 6 -4 9 -13 5 -21z m142
15 c-3 -5 -12 -10 -18 -10 -7 0 -6 4 3 10 19 12 23 12 15 0z m17 -12 c-7 -9
-6 -16 3 -25 7 -6 15 -11 17 -10 2 1 -5 -6 -15 -16 -15 -13 -23 -15 -33 -6 -8
6 -14 17 -14 25 0 7 -8 18 -17 24 -12 8 -13 10 -3 7 8 -2 20 -12 25 -23 6 -10
19 -20 30 -22 19 -2 19 -2 2 12 -16 12 -16 17 -6 35 7 11 15 18 18 16 2 -3 -1
-10 -7 -17z m63 12 c-3 -5 -1 -10 6 -10 7 0 10 -3 6 -6 -9 -9 -28 6 -22 17 4
5 8 9 11 9 3 0 2 -4 -1 -10z m90 -7 c-1 -10 3 -25 9 -33 10 -13 9 -13 -6 -1
-10 7 -15 17 -12 22 3 5 -1 9 -8 9 -9 0 -9 3 2 10 19 13 19 13 15 -7z m-1960
-24 c-5 -25 -15 -38 -15 -20 0 7 -5 9 -11 6 -6 -4 -5 2 3 14 17 27 28 27 23 0z
m1559 0 c-3 -5 -10 -6 -16 -3 -7 4 -8 2 -4 -4 4 -7 2 -12 -3 -12 -13 0 -13 3
-5 24 3 8 12 12 20 9 8 -3 11 -9 8 -14z m286 11 c0 -5 -4 -10 -10 -10 -5 0
-10 5 -10 10 0 6 5 10 10 10 6 0 10 -4 10 -10z m90 -14 c10 -13 10 -17 3 -12
-8 4 -13 2 -13 -6 0 -10 -2 -10 -9 1 -5 8 -7 20 -4 28 3 8 6 13 7 11 1 -2 8
-12 16 -22z m-1890 5 c0 -6 -4 -12 -8 -15 -5 -3 -9 1 -9 9 0 8 4 15 9 15 4 0
8 -4 8 -9z m1831 -12 c-23 -9 -24 -10 -5 -24 10 -8 15 -15 9 -15 -5 0 -3 -5 5
-11 10 -7 11 -9 2 -7 -8 2 -13 8 -13 13 0 6 -7 13 -14 18 -20 11 -7 37 19 36
20 0 20 -1 -3 -10z m-1895 -30 c6 -5 14 -6 17 -3 3 4 4 -6 1 -22 -6 -32 -18
-50 -13 -19 5 27 -8 45 -31 45 -10 0 -21 4 -24 9 -7 11 34 2 50 -10z m1534 8
c8 0 22 3 32 7 11 5 18 1 23 -15 6 -17 9 -19 17 -8 8 12 9 11 5 -1 -5 -18 -32
-20 -32 -2 0 6 -4 11 -10 10 -5 -2 -9 -7 -7 -12 2 -5 -4 -6 -13 -2 -9 3 -14 2
-11 -3 3 -5 -1 -12 -10 -15 -12 -5 -14 -1 -9 17 7 21 7 22 -8 2 -14 -18 -13
-21 3 -32 10 -7 29 -15 42 -17 12 -3 25 -5 28 -6 5 -1 -30 -23 -40 -26 -3 0
-13 -4 -23 -9 -17 -7 -17 -8 0 -22 16 -13 16 -13 -5 -3 -14 7 -20 16 -15 23
13 21 10 47 -6 60 -14 11 -14 10 -2 -5 7 -10 11 -18 8 -18 -3 0 -14 -3 -24 -6
-15 -5 -15 -4 -3 5 12 9 13 11 1 11 -10 0 -8 7 8 24 14 15 19 26 12 31 -18 11
-13 28 7 20 9 -5 24 -8 32 -8z m394 -4 c5 -12 9 -14 18 -5 7 7 19 12 28 12 8
0 2 -7 -14 -15 -16 -9 -30 -14 -30 -13 -1 2 -8 11 -15 21 -7 9 -9 17 -3 17 5
0 13 -8 16 -17z m-233 -10 c10 -11 10 -14 2 -9 -7 4 -14 2 -14 -3 -1 -6 -2
-17 -3 -23 0 -7 -12 -13 -26 -13 -15 0 -24 5 -22 13 2 10 -2 10 -18 2 -11 -6
-18 -16 -14 -22 4 -6 1 -9 -7 -6 -8 3 -14 10 -14 16 0 5 -4 14 -9 19 -5 4 -6
3 -2 -4 3 -6 2 -14 -4 -18 -5 -3 -10 -2 -10 4 0 6 -8 8 -17 5 -10 -3 -7 1 7 9
16 10 29 12 36 6 14 -12 41 -2 48 17 3 9 10 13 15 9 5 -3 12 -1 16 5 9 15 21
12 36 -7z m-1777 -33 c-3 -2 -9 2 -14 10 -7 11 -11 11 -24 1 -9 -7 -22 -11
-30 -8 -9 4 -16 -3 -21 -21 -6 -23 -8 -24 -16 -10 -6 10 -17 15 -27 12 -14 -5
-14 -4 -2 4 9 7 18 7 26 1 8 -6 13 -3 17 11 3 12 11 18 19 15 7 -3 22 1 33 9
17 12 21 12 31 -3 7 -9 10 -18 8 -21z m26 28 c0 -4 -4 -8 -9 -8 -6 0 -12 4
-15 8 -3 5 1 9 9 9 8 0 15 -4 15 -9z m1910 2 c-8 -5 -19 -10 -25 -10 -5 0 -3
5 5 10 8 5 20 10 25 10 6 0 3 -5 -5 -10z m-2570 -16 c0 -8 -19 -13 -24 -6 -3
5 1 9 9 9 8 0 15 -2 15 -3z m703 -1 c-7 -2 -19 -2 -25 0 -7 3 -2 5 12 5 14 0
19 -2 13 -5z m1812 -3 c-3 -5 -13 -10 -21 -10 -8 0 -14 -5 -14 -11 0 -5 4 -8
9 -5 5 3 14 -1 21 -9 9 -10 9 -15 1 -15 -6 0 -11 5 -11 11 0 5 -5 7 -11 3 -7
-4 -7 -10 -1 -16 6 -6 8 -17 5 -24 -4 -10 0 -12 13 -8 13 4 15 3 6 -3 -15 -12
-10 -55 8 -61 8 -3 10 0 5 9 -6 11 -5 12 5 2 19 -17 7 -25 -24 -17 -23 5 -25
9 -14 22 8 10 9 13 1 9 -7 -5 -9 0 -6 15 3 13 3 20 0 17 -4 -3 -8 -16 -10 -29
-2 -13 -10 -26 -17 -28 -8 -3 -10 0 -6 7 4 7 2 10 -5 9 -6 -2 -14 3 -16 10 -3
7 1 10 10 6 21 -8 31 14 15 33 -11 15 -11 16 4 10 10 -3 20 -1 24 5 4 6 3 8
-3 5 -6 -4 -13 0 -17 8 -3 8 -1 15 5 15 6 0 7 5 3 11 -5 8 -9 8 -14 -1 -5 -8
-10 -9 -14 -2 -3 6 -1 13 4 15 6 3 5 4 -2 3 -7 -2 -12 -9 -10 -16 2 -7 -5 -10
-20 -6 -13 3 -17 3 -10 0 6 -3 10 -10 7 -15 -4 -5 0 -6 8 -3 8 3 14 -2 14 -11
0 -19 -11 -19 -31 1 -20 20 -20 33 0 41 12 5 13 7 2 14 -7 5 4 7 28 4 22 -2
47 1 55 6 19 12 32 11 24 -1z m81 -2 c5 -8 2 -9 -10 -5 -14 6 -17 3 -12 -8 3
-9 2 -13 -4 -10 -6 3 -10 1 -10 -6 0 -7 -7 -4 -16 7 -15 19 -16 19 -9 -1 5
-15 3 -17 -6 -8 -16 16 -2 38 16 23 9 -8 14 -6 19 5 6 18 22 20 32 3z m-1925
-13 c5 4 6 -1 3 -10 -5 -11 -2 -14 12 -9 16 5 16 4 4 -5 -11 -8 -18 -7 -27 6
-7 9 -13 22 -12 27 0 6 3 5 6 -2 2 -6 9 -10 14 -7z m-652 -17 c-11 -20 -25
-23 -34 -8 -4 6 -11 8 -16 5 -5 -4 -9 -1 -9 5 0 7 7 10 15 7 8 -4 17 -3 19 2
3 4 12 8 20 8 11 0 13 -5 5 -19z m611 6 c0 -2 -7 -4 -15 -4 -8 0 -15 4 -15 10
0 5 7 7 15 4 8 -4 15 -8 15 -10z m1992 -6 c-8 -8 -7 -14 4 -25 8 -8 14 -20 14
-26 0 -7 -11 2 -25 18 -19 23 -24 26 -25 13 0 -21 -16 -24 -26 -5 -4 6 -4 9 1
5 5 -5 15 1 22 12 8 11 19 18 24 15 5 -4 9 -1 9 6 0 7 3 9 7 6 4 -4 2 -12 -5
-19z m-278 3 c10 -16 -4 -38 -31 -50 -21 -10 -23 -14 -12 -27 9 -11 9 -17 1
-25 -7 -5 -10 -6 -7 -3 3 4 0 13 -6 21 -8 9 -8 17 0 26 6 8 8 17 5 20 -4 3 5
12 20 18 19 9 23 15 14 21 -9 5 -10 8 -1 8 6 0 14 -4 17 -9z m321 -10 c-8 -14
-25 -14 -25 0 0 5 5 7 10 4 6 -3 10 -1 10 6 0 7 3 10 6 6 3 -3 3 -10 -1 -16z
m-2228 2 c-4 -3 0 -15 10 -25 9 -10 12 -18 7 -18 -5 0 -2 -5 6 -11 13 -9 13
-10 -2 -6 -9 3 -19 1 -22 -6 -3 -9 -5 -9 -5 0 -1 6 4 15 9 18 6 4 4 12 -5 21
-14 14 -13 34 2 34 4 0 3 -3 0 -7z m55 -11 c-7 -2 -12 -10 -12 -18 0 -9 4 -13
8 -10 4 2 14 -4 21 -16 7 -11 8 -17 3 -14 -6 3 -12 3 -15 -1 -2 -5 -2 -2 -1 5
2 6 0 12 -5 12 -5 0 -16 11 -25 25 -15 23 -15 24 1 18 11 -4 14 -3 9 5 -5 8
-1 10 10 5 11 -4 13 -8 6 -11z m103 8 c8 -13 -5 -13 -25 0 -13 8 -13 10 2 10
9 0 20 -4 23 -10z m48 -7 c-4 -11 -3 -14 5 -9 8 5 10 1 5 -10 -4 -11 -8 -13
-11 -6 -2 7 -8 9 -14 6 -6 -4 -5 2 1 15 14 25 23 28 14 4z m-119 -8 c3 -8 1
-15 -4 -15 -6 0 -10 7 -10 15 0 8 2 15 4 15 2 0 6 -7 10 -15z m196 11 c0 -3
-13 -14 -30 -26 -16 -12 -30 -18 -30 -13 0 5 12 16 28 25 30 19 32 20 32 14z
m1672 -19 c8 -15 22 -23 37 -23 14 0 27 -6 29 -13 3 -10 0 -12 -11 -8 -27 10
-31 -13 -6 -39 12 -13 17 -24 11 -24 -7 0 -12 6 -12 13 -1 6 -7 1 -15 -13 -8
-14 -14 -22 -15 -18 0 3 -3 14 -7 24 -4 11 -3 15 5 10 6 -3 14 -1 18 5 4 7 3
9 -4 5 -6 -3 -14 -1 -18 5 -5 8 -3 9 6 4 9 -5 11 -4 6 4 -4 6 -12 8 -18 5 -6
-4 -8 1 -4 12 3 11 1 26 -5 34 -8 12 -9 11 -5 -5 5 -16 1 -21 -14 -21 -15 0
-19 5 -14 21 4 16 3 17 -5 5 -6 -8 -8 -23 -5 -34 4 -13 2 -16 -6 -11 -9 6 -9
3 -1 -13 6 -11 8 -29 5 -39 -5 -15 -4 -15 5 -3 6 8 11 13 12 10 0 -3 2 -13 4
-22 3 -15 0 -16 -17 -7 -11 6 -17 17 -14 25 3 8 1 14 -5 14 -6 0 -7 5 -4 10 4
6 -1 22 -9 35 -9 14 -12 25 -6 25 5 0 13 0 18 1 4 0 13 11 20 25 16 30 28 30
44 1z m63 14 c3 -5 2 -12 -3 -15 -5 -3 -9 1 -9 9 0 17 3 19 12 6z m-2455 -16
c0 -2 -9 -3 -19 -2 -11 0 -18 5 -15 9 4 6 34 0 34 -7z m54 3 c-3 -4 -11 -5
-19 -1 -21 7 -19 12 4 10 11 0 18 -5 15 -9z m522 0 c4 -6 3 -8 -3 -5 -6 4 -14
0 -17 -9 -4 -9 -9 -15 -11 -12 -8 7 5 38 15 38 5 0 12 -5 16 -12z m1964 2 c-8
-5 -19 -10 -25 -10 -5 0 -3 5 5 10 8 5 20 10 25 10 6 0 3 -5 -5 -10z m-2120
-21 c0 -14 -17 -10 -23 5 -4 10 -1 13 9 9 7 -3 14 -9 14 -14z m186 12 c-3 -5
3 -11 14 -14 21 -5 28 -27 9 -27 -5 0 -8 4 -5 9 3 5 -3 11 -14 14 -12 3 -20 0
-20 -8 0 -7 -7 -18 -16 -25 -12 -11 -18 -10 -30 3 -8 9 -11 15 -8 12 4 -3 14
1 23 8 14 11 14 10 2 -5 -9 -12 -10 -18 -2 -18 6 0 14 8 18 18 7 19 23 42 30
42 2 0 2 -4 -1 -9z m-232 -12 c-2 -4 -1 -9 3 -12 5 -2 2 -2 -4 -1 -7 2 -13 -2
-13 -9 0 -8 -4 -7 -9 3 -12 17 -7 27 13 27 8 0 13 -4 10 -8z m2186 0 c0 -5 4
-8 8 -5 4 2 8 -4 8 -14 0 -10 -4 -16 -8 -14 -4 3 -8 0 -8 -5 0 -6 -5 -11 -11
-11 -8 0 -8 5 1 15 10 12 10 18 0 30 -9 10 -9 15 -1 15 6 0 11 -5 11 -11z
m-2413 -31 c-3 -7 -5 -2 -5 12 0 14 2 19 5 13 2 -7 2 -19 0 -25z m40 26 c-3
-3 -12 -4 -19 -1 -8 3 -5 6 6 6 11 1 17 -2 13 -5z m87 -5 c-4 -8 1 -9 17 -5
19 6 20 5 8 -3 -9 -6 -26 -8 -38 -6 -17 3 -21 0 -17 -10 8 -22 -2 -18 -14 4
-9 17 -7 19 10 16 11 -2 22 0 25 6 4 5 8 9 11 9 3 0 2 -5 -2 -11z m-60 -15 c3
-8 2 -12 -4 -9 -6 3 -10 1 -10 -4 0 -6 -5 -11 -10 -11 -6 0 -5 8 2 20 15 24
14 24 22 4z m2318 -6 c-7 -7 -12 -8 -12 -2 0 14 12 26 19 19 2 -3 -1 -11 -7
-17z m-1898 -19 c4 6 13 11 19 11 7 0 6 -4 -3 -10 -8 -5 -15 -15 -15 -21 0 -7
-7 -14 -15 -16 -13 -4 -13 -3 0 6 8 6 13 11 10 12 -3 0 -16 2 -29 5 -20 4 -22
2 -11 -11 7 -9 8 -15 2 -15 -14 0 -23 28 -12 35 6 4 15 3 21 -1 8 -4 9 1 5 17
l-7 24 14 -24 c9 -15 17 -20 21 -12z m-597 2 c0 -11 -4 -18 -8 -15 -4 2 -9 -1
-11 -8 -3 -7 -7 -5 -11 6 -4 9 -3 15 2 12 5 -3 11 1 15 9 8 21 15 19 13 -4z
m86 2 c-5 -12 -3 -14 8 -8 11 6 12 5 2 -5 -7 -8 -16 -11 -19 -7 -7 6 2 37 10
37 3 0 2 -7 -1 -17z m187 2 c-10 -12 -10 -18 0 -30 7 -8 8 -15 3 -15 -5 0 -15
12 -21 26 -7 14 -8 23 -2 19 5 -3 10 -1 10 4 0 6 5 11 11 11 8 0 8 -5 -1 -15z
m74 -10 c-9 -14 -21 -25 -28 -25 -6 0 -4 5 4 10 13 9 13 11 0 21 -13 9 -12 10
3 5 9 -3 17 -1 17 4 0 6 5 10 10 10 6 0 3 -11 -6 -25z m85 8 c-12 -15 -12 -16
6 -9 15 5 17 4 8 -5 -9 -9 -17 -7 -35 6 -15 11 -17 15 -5 12 9 -4 17 -2 17 3
0 6 5 10 11 10 8 0 7 -6 -2 -17z m-195 -9 c3 -8 2 -12 -4 -9 -6 3 -10 1 -10
-6 0 -7 -2 -10 -5 -7 -5 5 4 38 10 38 2 0 6 -7 9 -16z m258 -4 c-2 -8 3 -10
13 -7 20 8 19 5 -5 -16 -20 -17 -20 -16 -16 9 4 20 2 24 -10 20 -9 -3 -12 -2
-9 5 9 14 31 5 27 -11z m175 -18 c14 -8 13 -12 -8 -33 -13 -13 -23 -28 -21
-33 2 -5 -4 -3 -13 4 -13 11 -15 10 -9 -4 6 -16 -10 -23 -20 -8 -6 11 8 34 20
31 16 -4 44 13 44 26 0 7 -7 18 -15 25 -8 7 -15 18 -15 24 0 6 5 3 11 -6 5
-10 17 -21 26 -26z m-616 3 c5 4 9 1 9 -5 0 -17 -25 -6 -26 11 -1 9 1 10 3 1
3 -7 9 -10 14 -7z m95 4 c18 -20 18 -21 1 -34 -13 -9 -15 -15 -7 -20 8 -5 8
-11 2 -17 -6 -6 -16 -7 -24 -2 -7 5 -19 9 -26 10 -8 2 -17 6 -20 10 -4 4 0 5
8 2 9 -3 24 0 35 8 10 8 15 14 11 14 -5 0 -3 6 3 14 10 11 8 17 -6 25 -10 6
-13 11 -7 11 6 0 19 -9 30 -21z m48 5 c4 -9 4 -19 1 -22 -2 -3 -7 3 -11 12 -3
9 -11 13 -17 9 -6 -3 -7 -1 -3 5 10 17 23 15 30 -4z m106 6 c0 -5 -4 -10 -10
-10 -5 0 -10 5 -10 10 0 6 5 10 10 10 6 0 10 -4 10 -10z m90 0 c8 -5 11 -10 5
-10 -5 0 -17 5 -25 10 -8 5 -10 10 -5 10 6 0 17 -5 25 -10z m1962 -9 c-1 -7 4
-24 13 -37 8 -13 15 -29 15 -36 0 -9 -3 -9 -10 2 -10 16 -10 17 -14 -37 0 -10
6 -18 14 -18 8 0 14 5 13 12 -2 6 6 11 17 10 11 -1 20 -8 20 -16 0 -8 -3 -11
-7 -8 -3 4 -17 0 -30 -8 -13 -9 -23 -13 -23 -9 0 4 -8 0 -17 -7 -15 -11 -16
-11 -5 1 20 23 14 33 -15 26 -18 -4 -23 -3 -14 2 10 7 11 14 2 31 -7 11 -10
21 -9 22 37 10 48 3 27 -18 -8 -8 -7 -13 3 -18 7 -5 10 -5 6 0 -4 4 -3 14 3
22 9 10 8 17 -2 30 -12 15 -12 16 3 10 12 -4 15 -2 11 8 -3 8 -9 13 -14 10 -7
-5 -29 25 -29 40 0 4 10 5 23 3 12 -2 21 -9 19 -17z m-1715 -25 c-2 -6 -16
-12 -32 -13 -28 -2 -28 -2 -6 13 12 9 18 20 14 27 -4 7 1 6 10 -2 10 -8 16
-19 14 -25z m-621 15 c-4 -5 0 -11 6 -14 7 -3 4 -5 -7 -5 -11 0 -31 -3 -45 -7
-18 -5 -16 -2 10 13 43 24 42 24 36 13z m99 -1 c-3 -5 -13 -10 -21 -10 -8 0
-14 -5 -14 -12 0 -6 -3 -8 -7 -4 -5 4 1 14 11 22 23 16 40 19 31 4z m263 -6
c6 -11 11 -13 16 -5 9 14 26 15 26 1 0 -5 -5 -9 -11 -7 -6 1 -13 -3 -16 -9 -7
-20 31 -10 42 10 6 11 17 21 25 23 10 3 9 1 -2 -7 -10 -6 -18 -17 -18 -24 0
-8 -7 -20 -16 -27 -14 -11 -19 -10 -35 10 -11 13 -19 20 -19 16 0 -4 -6 -2
-13 4 -8 6 -18 7 -23 3 -4 -4 -2 1 5 11 17 21 27 22 39 1z m2079 -7 c0 -7 -7
-19 -15 -26 -12 -12 -13 -11 -8 10 6 20 5 21 -4 6 -6 -9 -8 -22 -5 -27 3 -6
-1 -13 -9 -16 -9 -3 -14 -9 -12 -13 2 -3 -6 -7 -19 -7 -21 -2 -22 -1 -6 16 9
9 19 15 22 14 3 -2 6 3 6 10 0 8 -6 12 -14 9 -9 -3 -11 0 -7 10 3 9 12 13 20
10 7 -3 16 2 20 10 6 18 31 13 31 -6z m-2213 -2 c-7 -16 -24 -21 -24 -6 0 8 7
13 27 20 1 1 0 -6 -3 -14z m68 1 c5 3 4 -3 -3 -14 -7 -12 -17 -18 -22 -15 -5
3 -6 -5 -3 -18 3 -13 3 -18 0 -11 -3 6 -10 9 -16 6 -6 -4 -5 2 1 15 7 11 16
21 21 21 5 0 8 6 6 13 -1 6 -1 9 1 4 3 -4 9 -4 15 -1z m221 -23 c-3 -8 -6 -13
-7 -11 -1 2 -8 12 -16 22 -10 13 -10 17 -2 12 7 -4 12 -2 12 6 0 10 2 10 9 -1
5 -8 7 -20 4 -28z m-362 0 c-12 -20 -14 -14 -5 12 4 9 9 14 11 11 3 -2 0 -13
-6 -23z m36 10 c-3 -5 1 -14 9 -20 8 -8 15 -9 19 -3 3 6 12 10 18 10 7 0 4 -5
-5 -11 -10 -5 -18 -15 -18 -20 0 -6 3 -8 8 -5 11 6 47 -22 38 -31 -4 -4 -11
-1 -16 7 -6 8 -10 11 -10 5 0 -5 -14 6 -30 25 -22 26 -30 30 -30 18 0 -10 -5
-18 -11 -18 -10 0 -5 13 14 38 10 13 21 17 14 5z m-206 -12 c-9 -6 -10 -11 -2
-15 6 -4 14 0 17 8 3 9 10 16 15 16 5 0 2 -12 -7 -26 -15 -22 -19 -23 -26 -10
-5 9 -15 13 -21 9 -7 -4 -6 0 2 10 7 9 19 17 25 17 6 0 5 -4 -3 -9z m370 -18
c2 1 1 -2 -4 -8 -5 -6 -11 -4 -17 5 -15 23 -11 37 4 18 7 -10 15 -17 17 -15z
m101 10 c-6 -3 -9 -10 -5 -16 4 -6 0 -8 -10 -4 -9 3 -19 2 -22 -3 -4 -6 1 -10
9 -10 8 0 20 -8 25 -17 6 -10 11 -13 12 -8 1 6 2 15 4 20 1 6 3 16 3 23 1 6 7
12 13 12 5 0 8 -4 5 -9 -4 -5 -3 -11 1 -14 5 -2 2 -2 -5 0 -8 1 -12 -3 -9 -9
4 -12 25 -13 55 -3 7 3 10 10 6 16 -4 8 -9 7 -15 -2 -5 -8 -9 -9 -9 -4 0 6 5
17 10 25 6 9 10 10 10 3 0 -7 16 -20 35 -29 19 -9 35 -20 35 -25 0 -12 -14
-11 -26 1 -7 7 -17 5 -30 -5 -11 -9 -13 -14 -5 -13 26 5 19 -41 -8 -59 -20
-13 -23 -13 -14 -1 11 12 9 14 -10 12 -12 -1 -29 -3 -37 -3 -13 -1 -13 -2 0
-11 9 -6 17 -5 22 3 12 18 9 -2 -3 -24 -5 -11 -15 -17 -21 -13 -7 4 -6 9 3 15
11 7 9 9 -6 10 -26 2 -27 2 -46 -6 -10 -4 -16 0 -16 10 0 10 6 13 18 10 22 -7
29 4 18 30 -4 11 -8 14 -8 7 -1 -7 -6 -10 -13 -6 -6 4 -8 3 -4 -4 4 -7 -6 -9
-29 -8 -19 2 -33 0 -30 -4 2 -4 -2 -7 -8 -7 -7 0 -14 9 -14 19 -2 20 8 23 24
7 7 -7 15 -6 25 5 9 8 18 12 22 9 6 -7 36 15 36 27 0 4 -10 11 -22 14 -23 6
-23 7 7 31 16 13 32 21 35 18 3 -3 -1 -8 -8 -10z m108 -3 c0 -5 -2 -10 -4 -10
-3 0 -8 5 -11 10 -3 6 -1 10 4 10 6 0 11 -4 11 -10z m1876 -14 c-2 -14 0 -26
6 -28 6 -2 4 -9 -5 -17 -13 -10 -17 -9 -27 9 -9 18 -8 25 6 41 22 25 25 24 20
-5z m-2386 4 c8 -5 11 -10 5 -10 -5 0 -17 5 -25 10 -8 5 -10 10 -5 10 6 0 17
-5 25 -10z m270 -21 c9 -22 10 -33 2 -41 -8 -8 -9 -4 -6 13 5 20 4 21 -6 9 -9
-12 -10 -10 -4 10 6 22 5 23 -10 11 -10 -9 -16 -10 -16 -2 0 6 5 11 11 11 5 0
7 5 4 10 -3 6 -2 10 3 10 5 0 15 -14 22 -31z m-284 -4 c5 -13 9 -13 23 -3 13
10 14 10 4 -2 -18 -20 -16 -35 2 -20 10 9 15 9 15 1 0 -6 -5 -11 -11 -11 -5 0
-7 -6 -4 -12 4 -7 -3 -2 -14 11 -12 13 -21 20 -21 16 0 -4 -6 -2 -13 4 -8 6
-18 7 -23 3 -4 -4 -2 1 5 11 17 21 30 22 37 2z m64 -13 c0 -15 -2 -15 -10 -2
-13 20 -13 33 0 25 6 -3 10 -14 10 -23z m32 11 c-6 -3 -9 -10 -6 -15 4 -7 2
-8 -5 -4 -9 6 -9 11 0 22 6 8 15 12 18 8 3 -4 0 -9 -7 -11z m51 0 c-4 -11 -3
-14 5 -9 8 5 10 2 6 -9 -5 -11 -2 -14 12 -9 16 6 17 5 6 -7 -11 -12 -15 -11
-26 3 -7 10 -17 14 -21 10 -4 -4 -2 3 4 16 14 26 23 30 14 5z m192 7 c-3 -5
-14 -10 -23 -10 -15 0 -15 2 -2 10 20 13 33 13 25 0z m35 -20 c12 -7 10 -9 -8
-7 -12 0 -22 5 -22 9 0 11 12 10 30 -2z m-230 -39 c12 -12 10 -11 -9 0 -14 9
-27 22 -29 30 -3 11 -2 11 9 -1 8 -8 21 -21 29 -29z m194 10 c-4 -3 -9 0 -11
7 -3 6 -10 9 -15 6 -7 -4 -8 -2 -4 5 6 9 11 9 22 0 8 -6 12 -15 8 -18z m-236
-8 c2 -7 -1 -13 -8 -13 -6 0 -8 5 -5 10 3 6 -1 10 -10 10 -9 0 -13 -4 -10 -10
3 -6 -1 -7 -10 -3 -13 5 -14 7 -3 14 17 12 40 7 46 -8z m102 7 c0 -5 -5 -10
-11 -10 -5 0 -7 5 -4 10 3 6 8 10 11 10 2 0 4 -4 4 -10z m33 3 c-7 -2 -13 -12
-13 -20 0 -9 -3 -14 -6 -10 -10 10 4 37 18 36 10 0 10 -2 1 -6z m18 -20 c-12
-20 -14 -14 -5 12 4 9 9 14 11 11 3 -2 0 -13 -6 -23z m-51 -15 c0 -5 -9 -4
-20 2 -11 6 -20 12 -20 14 0 2 9 2 20 -1 11 -3 20 -9 20 -15z m70 -3 c-11 -13
-10 -14 4 -9 23 9 20 -9 -5 -25 -19 -11 -21 -11 -16 1 3 8 -1 15 -9 15 -7 0
-11 -5 -7 -10 3 -5 -3 -6 -15 -3 -11 4 -23 2 -27 -3 -4 -7 1 -8 12 -5 15 5 15
4 3 -4 -8 -6 -17 -9 -21 -6 -4 2 -11 -1 -14 -6 -5 -7 -12 -5 -22 7 -13 17 -13
17 -4 -3 6 -12 7 -24 4 -28 -3 -3 -1 -6 5 -6 7 0 12 -4 12 -9 0 -6 -9 -9 -20
-8 -13 1 -18 6 -15 17 3 9 -2 25 -10 36 -12 16 -14 16 -9 2 4 -11 1 -18 -6
-18 -6 0 -8 -5 -4 -12 5 -8 -2 -6 -16 3 -14 9 -25 22 -25 28 0 6 -7 16 -15 21
-8 5 -11 10 -6 10 5 0 17 -7 27 -16 11 -10 23 -13 31 -8 17 11 40 11 55 1 14
-10 36 0 28 13 -6 10 42 23 55 15 5 -3 14 4 20 16 7 11 14 18 17 15 3 -3 0
-12 -7 -21z m77 -6 c-9 -6 -15 -15 -11 -21 4 -6 -2 -8 -17 -3 -13 3 -19 3 -14
-2 6 -4 11 -16 11 -26 2 -13 -3 -16 -20 -12 -17 5 -18 4 -6 -4 8 -6 23 -8 33
-5 11 4 17 1 15 -8 -2 -7 4 -13 12 -13 8 0 14 5 13 11 -1 6 12 11 30 11 18 0
26 -2 19 -5 -6 -2 -10 -7 -8 -11 3 -4 -3 -8 -12 -9 -58 -6 -92 -6 -91 2 1 16
-32 29 -44 17 -7 -7 -6 -16 6 -29 21 -23 22 -39 2 -18 -9 9 -23 12 -33 9 -14
-5 -15 -4 -6 8 18 24 24 48 12 55 -6 4 -8 3 -5 -3 4 -6 0 -13 -8 -17 -8 -3
-15 0 -16 7 0 9 -2 9 -6 -1 -2 -6 -10 -9 -15 -6 -7 4 -8 2 -4 -5 4 -6 11 -9
16 -6 4 3 11 -2 14 -11 5 -12 1 -14 -17 -10 -12 3 -16 3 -9 0 6 -3 10 -10 7
-15 -4 -5 0 -6 8 -3 25 9 29 -14 5 -27 -13 -6 -20 -8 -16 -4 4 4 1 13 -6 21
-8 7 -13 28 -12 46 1 26 6 33 21 33 11 -1 23 4 27 10 5 7 14 6 27 -2 15 -9 22
-10 27 -1 5 7 3 8 -6 3 -9 -5 -11 -4 -6 4 6 9 11 9 24 -1 9 -8 13 -8 9 -1 -8
13 2 45 12 39 4 -3 13 -1 21 5 8 5 20 9 25 9 6 -1 2 -5 -8 -11z m13 -49 c0
-11 -4 -20 -10 -20 -5 0 -10 9 -10 20 0 11 5 20 10 20 6 0 10 -9 10 -20z"/>
<path d="M4244 1739 c-3 -6 -1 -16 5 -22 8 -8 11 -5 11 11 0 24 -5 28 -16 11z"/>
<path d="M4316 1631 c-12 -5 -15 -10 -9 -14 6 -4 16 0 23 8 14 17 13 17 -14 6z"/>
<path d="M4580 1540 c0 -5 5 -10 11 -10 5 0 7 5 4 10 -3 6 -8 10 -11 10 -2 0
-4 -4 -4 -10z"/>
<path d="M4745 1440 c-3 -5 -1 -10 4 -10 6 0 11 5 11 10 0 6 -2 10 -4 10 -3 0
-8 -4 -11 -10z"/>
<path d="M4340 1359 c0 -5 5 -7 10 -4 6 3 10 8 10 11 0 2 -4 4 -10 4 -5 0 -10
-5 -10 -11z"/>
<path d="M4520 1379 c0 -5 5 -7 10 -4 6 3 10 8 10 11 0 2 -4 4 -10 4 -5 0 -10
-5 -10 -11z"/>
<path d="M4075 1330 c-3 -5 -1 -10 4 -10 6 0 11 5 11 10 0 6 -2 10 -4 10 -3 0
-8 -4 -11 -10z"/>
<path d="M4208 1303 c6 -2 9 -10 6 -15 -4 -7 -2 -8 5 -4 13 9 5 26 -12 25 -9
0 -8 -2 1 -6z"/>
<path d="M4685 1280 c3 -5 8 -10 11 -10 2 0 4 5 4 10 0 6 -5 10 -11 10 -5 0
-7 -4 -4 -10z"/>
<path d="M4285 1300 c-3 -5 -1 -10 4 -10 6 0 11 5 11 10 0 6 -2 10 -4 10 -3 0
-8 -4 -11 -10z"/>
<path d="M4420 1220 c0 -5 5 -10 11 -10 5 0 7 5 4 10 -3 6 -8 10 -11 10 -2 0
-4 -4 -4 -10z"/>
<path d="M4640 1259 c0 -5 5 -7 10 -4 6 3 10 8 10 11 0 2 -4 4 -10 4 -5 0 -10
-5 -10 -11z"/>
<path d="M4095 1191 c-3 -5 -2 -12 3 -15 5 -3 9 1 9 9 0 17 -3 19 -12 6z"/>
<path d="M4055 1149 c-11 -17 1 -21 15 -4 8 9 8 15 2 15 -6 0 -14 -5 -17 -11z"/>
<path d="M4395 1099 c-4 -6 -5 -12 -2 -15 2 -3 7 2 10 11 7 17 1 20 -8 4z"/>
<path d="M4660 1039 c0 -5 5 -7 10 -4 6 3 10 8 10 11 0 2 -4 4 -10 4 -5 0 -10
-5 -10 -11z"/>
<path d="M4506 862 c-2 -4 4 -8 14 -8 10 0 16 4 14 8 -3 4 -9 8 -14 8 -5 0
-11 -4 -14 -8z"/>
<path d="M4655 929 c-4 -6 -14 -8 -24 -4 -13 5 -14 4 -3 -6 10 -11 15 -10 29
4 10 9 14 17 11 17 -4 0 -10 -5 -13 -11z"/>
<path d="M2265 880 c-3 -5 -1 -10 4 -10 6 0 11 5 11 10 0 6 -2 10 -4 10 -3 0
-8 -4 -11 -10z"/>
<path d="M2445 740 c-3 -5 -1 -10 4 -10 6 0 11 5 11 10 0 6 -2 10 -4 10 -3 0
-8 -4 -11 -10z"/>
<path d="M2425 700 c3 -5 11 -10 16 -10 6 0 7 5 4 10 -3 6 -11 10 -16 10 -6 0
-7 -4 -4 -10z"/>
<path d="M2925 740 c-3 -5 -1 -10 4 -10 6 0 11 5 11 10 0 6 -2 10 -4 10 -3 0
-8 -4 -11 -10z"/>
<path d="M2665 740 c3 -5 8 -10 11 -10 2 0 4 5 4 10 0 6 -5 10 -11 10 -5 0 -7
-4 -4 -10z"/>
<path d="M2865 660 c-3 -6 1 -7 9 -4 18 7 21 14 7 14 -6 0 -13 -4 -16 -10z"/>
<path d="M2794 638 c-3 -5 -10 -6 -15 -3 -13 9 -11 -8 4 -30 10 -12 19 -15 28
-9 17 11 41 12 54 2 6 -4 11 1 11 10 0 13 -8 17 -26 16 -14 -1 -27 -3 -30 -4
-3 -1 -9 -2 -13 -1 -5 1 -6 -3 -2 -9 3 -5 1 -10 -5 -10 -22 0 -5 33 19 37 35
5 40 14 7 11 -15 -1 -30 -6 -32 -10z"/>
<path d="M2345 660 c3 -5 8 -10 11 -10 2 0 4 5 4 10 0 6 -5 10 -11 10 -5 0 -7
-4 -4 -10z"/>
<path d="M3065 1280 c-3 -5 -1 -10 4 -10 6 0 11 5 11 10 0 6 -2 10 -4 10 -3 0
-8 -4 -11 -10z"/>
<path d="M3866 1088 c3 -5 10 -6 15 -3 13 9 11 12 -6 12 -8 0 -12 -4 -9 -9z"/>
<path d="M3933 1054 c-3 -9 -12 -13 -21 -9 -9 3 -13 3 -9 -1 4 -4 -1 -13 -11
-20 -12 -8 -19 -9 -23 -2 -4 6 -6 0 -6 -13 1 -16 8 -25 19 -25 11 0 14 4 8 12
-10 11 -3 24 12 24 5 0 7 -4 3 -9 -8 -15 14 -24 29 -12 8 7 17 7 24 1 9 -7 9
-7 2 2 -15 18 -12 24 10 25 13 1 18 -2 14 -9 -4 -7 -2 -8 5 -4 9 6 9 11 0 22
-7 8 -15 11 -18 7 -3 -4 -14 -9 -23 -11 -12 -2 -16 2 -12 13 3 8 11 12 17 8 6
-3 7 -1 3 5 -10 16 -15 15 -23 -4z m-1 -39 c0 -5 -5 -11 -10 -13 -5 -1 -9 4
-9 13 0 9 4 14 9 13 5 -2 10 -8 10 -13z"/>
<path d="M3846 1048 c3 -5 10 -6 15 -3 13 9 11 12 -6 12 -8 0 -12 -4 -9 -9z"/>
<path d="M4015 1040 c-3 -5 -1 -10 4 -10 6 0 11 5 11 10 0 6 -2 10 -4 10 -3 0
-8 -4 -11 -10z"/>
<path d="M3997 1002 c-15 -16 -15 -19 -2 -19 8 0 13 3 10 5 -3 3 0 11 6 19 17
20 5 16 -14 -5z"/>
<path d="M4187 1001 c-4 -17 -3 -21 5 -13 5 5 8 16 6 23 -3 8 -7 3 -11 -10z"/>
<path d="M3910 969 c0 -5 5 -7 10 -4 6 3 10 8 10 11 0 2 -4 4 -10 4 -5 0 -10
-5 -10 -11z"/>
<path d="M4075 951 c-3 -5 -2 -12 3 -15 5 -3 9 1 9 9 0 17 -3 19 -12 6z"/>
<path d="M4113 945 c0 -8 4 -12 9 -9 5 3 6 10 3 15 -9 13 -12 11 -12 -6z"/>
<path d="M3976 928 c3 -5 10 -6 15 -3 13 9 11 12 -6 12 -8 0 -12 -4 -9 -9z"/>
<path d="M4333 843 c0 -9 4 -10 14 -2 7 6 13 12 13 14 0 1 -6 2 -13 2 -8 0
-14 -6 -14 -14z"/>
<path d="M3009 838 c0 -2 -2 -13 -3 -26 -3 -29 10 -38 17 -12 3 11 0 20 -6 20
-7 0 -5 5 3 10 10 6 11 10 3 10 -7 0 -13 -1 -14 -2z"/>
<path d="M2280 819 c0 -5 5 -7 10 -4 6 3 10 8 10 11 0 2 -4 4 -10 4 -5 0 -10
-5 -10 -11z"/>
<path d="M4153 816 c0 -15 22 -15 34 0 4 5 4 6 -1 2 -5 -4 -14 -3 -21 2 -8 7
-12 5 -12 -4z"/>
<path d="M3050 811 c0 -6 4 -13 10 -16 6 -3 7 1 4 9 -7 18 -14 21 -14 7z"/>
<path d="M3125 810 c-2 -3 9 -6 25 -5 15 0 26 3 24 7 -5 8 -44 6 -49 -2z"/>
<path d="M4435 811 c-3 -5 -2 -12 3 -15 5 -3 9 1 9 9 0 17 -3 19 -12 6z"/>
<path d="M4230 790 c0 -5 5 -10 11 -10 5 0 7 5 4 10 -3 6 -8 10 -11 10 -2 0
-4 -4 -4 -10z"/>
<path d="M4267 789 c7 -7 15 -10 18 -7 3 3 -2 9 -12 12 -14 6 -15 5 -6 -5z"/>
<path d="M4360 790 c-9 -6 -10 -10 -3 -10 6 0 15 5 18 10 8 12 4 12 -15 0z"/>
<path d="M4395 790 c-3 -5 -1 -10 4 -10 6 0 11 5 11 10 0 6 -2 10 -4 10 -3 0
-8 -4 -11 -10z"/>
<path d="M4175 781 c-3 -5 -2 -12 3 -15 5 -3 9 1 9 9 0 17 -3 19 -12 6z"/>
<path d="M3036 768 c3 -5 10 -6 15 -3 13 9 11 12 -6 12 -8 0 -12 -4 -9 -9z"/>
<path d="M3110 765 c5 -7 6 -16 2 -21 -4 -5 -3 -5 2 -1 15 12 15 34 0 34 -9 0
-11 -4 -4 -12z"/>
<path d="M4473 763 c0 -9 4 -10 14 -2 7 6 13 12 13 14 0 1 -6 2 -13 2 -8 0
-14 -6 -14 -14z"/>
<path d="M3193 753 c4 -3 1 -13 -6 -22 -11 -14 -10 -14 5 -2 16 12 16 31 1 31
-4 0 -3 -3 0 -7z"/>
<path d="M4310 749 c0 -5 5 -7 10 -4 6 3 10 8 10 11 0 2 -4 4 -10 4 -5 0 -10
-5 -10 -11z"/>
<path d="M4345 750 c-3 -6 1 -7 9 -4 18 7 21 14 7 14 -6 0 -13 -4 -16 -10z"/>
<path d="M4519 743 c-13 -16 -12 -17 4 -4 9 7 17 15 17 17 0 8 -8 3 -21 -13z"/>
<path d="M3030 731 c0 -5 5 -13 10 -16 6 -3 10 -2 10 4 0 5 -4 13 -10 16 -5 3
-10 2 -10 -4z"/>
<path d="M4246 732 c-3 -5 1 -9 9 -9 8 0 12 4 9 9 -3 4 -7 8 -9 8 -2 0 -6 -4
-9 -8z"/>
<path d="M4490 731 c0 -6 4 -13 10 -16 6 -3 7 1 4 9 -7 18 -14 21 -14 7z"/>
<path d="M3070 710 c-9 -6 -10 -10 -3 -10 6 0 15 5 18 10 8 12 4 12 -15 0z"/>
<path d="M3105 710 c-3 -6 1 -7 9 -4 18 7 21 14 7 14 -6 0 -13 -4 -16 -10z"/>
<path d="M4375 699 c-4 -6 -5 -12 -2 -15 2 -3 7 2 10 11 7 17 1 20 -8 4z"/>
<path d="M3240 696 c0 -2 8 -10 18 -17 15 -13 16 -12 3 4 -13 16 -21 21 -21
13z"/>
<path d="M4150 696 c0 -2 7 -7 16 -10 8 -3 12 -2 9 4 -6 10 -25 14 -25 6z"/>
<path d="M4326 688 c3 -5 10 -6 15 -3 13 9 11 12 -6 12 -8 0 -12 -4 -9 -9z"/>
<path d="M4490 690 c0 -5 5 -10 11 -10 5 0 7 5 4 10 -3 6 -8 10 -11 10 -2 0
-4 -4 -4 -10z"/>
<path d="M3066 668 c3 -4 11 -5 19 -1 21 7 19 12 -4 10 -11 0 -18 -5 -15 -9z"/>
<path d="M3093 647 c0 -7 9 -13 19 -13 10 0 18 1 18 3 0 1 -8 7 -18 12 -13 7
-19 6 -19 -2z"/>
<path d="M4515 631 c-3 -5 -2 -12 3 -15 5 -3 9 1 9 9 0 17 -3 19 -12 6z"/>
<path d="M3196 617 c3 -10 9 -15 12 -12 3 3 0 11 -7 18 -10 9 -11 8 -5 -6z"/>
<path d="M4355 621 c-3 -5 -2 -12 3 -15 5 -3 9 1 9 9 0 17 -3 19 -12 6z"/>
<path d="M2910 612 c0 -5 7 -9 15 -9 8 0 12 4 9 9 -3 4 -9 8 -15 8 -5 0 -9 -4
-9 -8z"/>
<path d="M3106 608 c3 -5 10 -6 15 -3 13 9 11 12 -6 12 -8 0 -12 -4 -9 -9z"/>
<path d="M4240 615 c0 -2 6 -8 13 -14 10 -8 14 -7 14 2 0 8 -6 14 -14 14 -7 0
-13 -1 -13 -2z"/>
<path d="M4460 616 c0 -2 8 -10 18 -17 15 -13 16 -12 3 4 -13 16 -21 21 -21
13z"/>
<path d="M2905 581 c-3 -5 -2 -12 3 -15 5 -3 9 1 9 9 0 17 -3 19 -12 6z"/>
<path d="M3050 570 c0 -5 5 -10 11 -10 5 0 7 5 4 10 -3 6 -8 10 -11 10 -2 0
-4 -4 -4 -10z"/>
<path d="M4376 563 c-6 -14 -5 -15 5 -6 7 7 10 15 7 18 -3 3 -9 -2 -12 -12z"/>
<path d="M4456 568 c3 -4 11 -5 19 -1 21 7 19 12 -4 10 -11 0 -18 -5 -15 -9z"/>
<path d="M4560 570 c-9 -6 -10 -10 -3 -10 6 0 15 5 18 10 8 12 4 12 -15 0z"/>
<path d="M3106 552 c-3 -5 1 -9 9 -9 8 0 12 4 9 9 -3 4 -7 8 -9 8 -2 0 -6 -4
-9 -8z"/>
<path d="M3162 533 c25 -27 25 -27 25 -9 0 8 -5 14 -11 13 -6 -1 -10 3 -9 9 1
6 -5 11 -13 11 -10 0 -9 -7 8 -24z"/>
<path d="M4456 537 c3 -10 9 -15 12 -12 3 3 0 11 -7 18 -10 9 -11 8 -5 -6z"/>
<path d="M4426 532 c-3 -5 1 -9 9 -9 8 0 12 4 9 9 -3 4 -7 8 -9 8 -2 0 -6 -4
-9 -8z"/>
<path d="M4553 525 c0 -8 4 -12 9 -9 5 3 6 10 3 15 -9 13 -12 11 -12 -6z"/>
<path d="M2915 510 c3 -5 8 -10 11 -10 2 0 4 5 4 10 0 6 -5 10 -11 10 -5 0 -7
-4 -4 -10z"/>
<path d="M3113 495 c0 -8 4 -12 9 -9 5 3 6 10 3 15 -9 13 -12 11 -12 -6z"/>
<path d="M4315 500 c-4 -6 -11 -7 -17 -4 -7 4 -8 2 -4 -5 6 -9 11 -9 22 0 14
11 18 19 10 19 -3 0 -8 -5 -11 -10z"/>
<path d="M2853 485 c0 -8 4 -12 9 -9 4 3 8 9 8 15 0 5 -4 9 -8 9 -5 0 -9 -7
-9 -15z"/>
<path d="M3046 488 c3 -5 10 -6 15 -3 13 9 11 12 -6 12 -8 0 -12 -4 -9 -9z"/>
<path d="M3156 488 c3 -5 10 -6 15 -3 13 9 11 12 -6 12 -8 0 -12 -4 -9 -9z"/>
<path d="M2447 469 c7 -7 15 -10 18 -7 3 3 -2 9 -12 12 -14 6 -15 5 -6 -5z"/>
<path d="M3147 469 c7 -7 15 -10 18 -7 3 3 -2 9 -12 12 -14 6 -15 5 -6 -5z"/>
<path d="M2711 437 c-8 -10 -7 -14 2 -14 8 0 14 6 14 14 0 7 -1 13 -2 13 -2 0
-8 -6 -14 -13z"/>
<path d="M2470 436 c0 -2 7 -7 16 -10 8 -3 12 -2 9 4 -6 10 -25 14 -25 6z"/>
<path d="M2400 410 c-12 -7 -10 -9 7 -7 12 0 19 5 17 9 -6 10 -6 10 -24 -2z"/>
<path d="M2476 388 c3 -5 10 -6 15 -3 13 9 11 12 -6 12 -8 0 -12 -4 -9 -9z"/>
<path d="M2519 398 c-7 -23 -4 -35 7 -35 9 0 11 4 4 12 -5 7 -7 15 -3 18 3 4
3 7 0 7 -4 0 -7 -1 -8 -2z"/>
<path d="M2600 390 c-9 -6 -10 -10 -3 -10 6 0 15 5 18 10 8 12 4 12 -15 0z"/>
<path d="M2385 370 c-3 -6 1 -7 9 -4 18 7 21 14 7 14 -6 0 -13 -4 -16 -10z"/>
<path d="M2826 368 c3 -5 10 -6 15 -3 13 9 11 12 -6 12 -8 0 -12 -4 -9 -9z"/>
<path d="M2856 363 c-6 -14 -5 -15 5 -6 7 7 10 15 7 18 -3 3 -9 -2 -12 -12z"/>
<path d="M2994 366 c1 -8 5 -18 8 -22 4 -3 5 1 4 10 -1 8 -5 18 -8 22 -4 3 -5
-1 -4 -10z"/>
<path d="M3030 366 c7 -7 13 -7 20 0 6 6 3 10 -10 10 -13 0 -16 -4 -10 -10z"/>
<path d="M3079 378 c-5 -18 -6 -38 -1 -34 7 8 12 36 6 36 -2 0 -4 -1 -5 -2z"/>
<path d="M4335 350 c-3 -5 -1 -10 4 -10 6 0 11 5 11 10 0 6 -2 10 -4 10 -3 0
-8 -4 -11 -10z"/>
<path d="M2635 341 c-3 -5 -2 -12 3 -15 5 -3 9 1 9 9 0 17 -3 19 -12 6z"/>
<path d="M2715 340 c-4 -6 -11 -7 -17 -4 -7 4 -8 2 -4 -5 6 -9 11 -9 22 0 14
11 18 19 10 19 -3 0 -8 -5 -11 -10z"/>
<path d="M2776 337 c3 -10 9 -15 12 -12 3 3 0 11 -7 18 -10 9 -11 8 -5 -6z"/>
<path d="M2854 328 c-4 -7 -4 -10 1 -6 4 4 15 2 24 -5 14 -11 14 -10 2 6 -16
20 -18 21 -27 5z"/>
<path d="M2935 330 c3 -5 8 -10 11 -10 2 0 4 5 4 10 0 6 -5 10 -11 10 -5 0 -7
-4 -4 -10z"/>
<path d="M3130 331 c0 -6 4 -13 10 -16 6 -3 7 1 4 9 -7 18 -14 21 -14 7z"/>
<path d="M2389 313 c-13 -16 -12 -17 4 -4 9 7 17 15 17 17 0 8 -8 3 -21 -13z"/>
<path d="M2590 310 c0 -5 5 -10 11 -10 5 0 7 5 4 10 -3 6 -8 10 -11 10 -2 0
-4 -4 -4 -10z"/>
<path d="M2627 309 c7 -7 15 -10 18 -7 3 3 -2 9 -12 12 -14 6 -15 5 -6 -5z"/>
<path d="M2517 285 c-4 -8 -3 -16 1 -19 4 -3 9 4 9 15 2 23 -3 25 -10 4z"/>
<path d="M2550 292 c0 -5 7 -9 15 -9 8 0 12 4 9 9 -3 4 -9 8 -15 8 -5 0 -9 -4
-9 -8z"/>
<path d="M2755 291 c-3 -5 -2 -12 3 -15 5 -3 9 1 9 9 0 17 -3 19 -12 6z"/>
<path d="M2865 290 c-3 -6 1 -7 9 -4 18 7 21 14 7 14 -6 0 -13 -4 -16 -10z"/>
<path d="M2996 288 c3 -5 10 -6 15 -3 13 9 11 12 -6 12 -8 0 -12 -4 -9 -9z"/>
<path d="M3086 292 c-3 -5 1 -9 9 -9 8 0 15 4 15 9 0 4 -4 8 -9 8 -6 0 -12 -4
-15 -8z"/>
<path d="M2375 270 c-3 -5 -1 -10 4 -10 6 0 11 5 11 10 0 6 -2 10 -4 10 -3 0
-8 -4 -11 -10z"/>
<path d="M2905 270 c-3 -6 1 -7 9 -4 18 7 21 14 7 14 -6 0 -13 -4 -16 -10z"/>
<path d="M2953 265 c0 -8 4 -12 9 -9 5 3 6 10 3 15 -9 13 -12 11 -12 -6z"/>
<path d="M2399 248 c-5 -18 -6 -38 -1 -34 7 8 12 36 6 36 -2 0 -4 -1 -5 -2z"/>
<path d="M2726 212 c-3 -5 1 -9 9 -9 8 0 12 4 9 9 -3 4 -7 8 -9 8 -2 0 -6 -4
-9 -8z"/>
<path d="M2770 211 c0 -6 4 -13 10 -16 6 -3 7 1 4 9 -7 18 -14 21 -14 7z"/>
<path d="M2966 212 c-3 -5 1 -9 9 -9 8 0 12 4 9 9 -3 4 -7 8 -9 8 -2 0 -6 -4
-9 -8z"/>
<path d="M3053 201 c0 -11 5 -18 9 -15 4 3 5 11 1 19 -7 21 -12 19 -10 -4z"/>
<path d="M2515 190 c3 -5 8 -10 11 -10 2 0 4 5 4 10 0 6 -5 10 -11 10 -5 0 -7
-4 -4 -10z"/>
<path d="M2456 163 c-6 -14 -5 -15 5 -6 7 7 10 15 7 18 -3 3 -9 -2 -12 -12z"/>
<path d="M2646 168 c3 -5 10 -6 15 -3 13 9 11 12 -6 12 -8 0 -12 -4 -9 -9z"/>
<path d="M2710 150 c0 -5 5 -10 11 -10 5 0 7 5 4 10 -3 6 -8 10 -11 10 -2 0
-4 -4 -4 -10z"/>
<path d="M2747 149 c7 -7 15 -10 18 -7 3 3 -2 9 -12 12 -14 6 -15 5 -6 -5z"/>
<path d="M2526 131 c-14 -15 -15 -21 -4 -27 7 -4 10 -3 5 1 -4 5 0 17 10 27 9
10 14 18 11 18 -3 0 -13 -9 -22 -19z"/>
<path d="M2654 139 c-3 -6 -2 -15 3 -20 5 -5 9 -1 9 11 0 23 -2 24 -12 9z"/>
<path d="M2940 136 c0 -2 8 -10 18 -17 15 -13 16 -12 3 4 -13 16 -21 21 -21
13z"/>
<path d="M2713 115 c0 -8 4 -12 9 -9 5 3 6 10 3 15 -9 13 -12 11 -12 -6z"/>
<path d="M2745 110 c-3 -6 1 -7 9 -4 18 7 21 14 7 14 -6 0 -13 -4 -16 -10z"/>
<path d="M2650 90 c0 -5 5 -10 11 -10 5 0 7 5 4 10 -3 6 -8 10 -11 10 -2 0 -4
-4 -4 -10z"/>
<path d="M2709 73 c-13 -16 -12 -17 4 -4 16 13 21 21 13 21 -2 0 -10 -8 -17
-17z"/>
<path d="M2593 65 c0 -8 4 -12 9 -9 5 3 6 10 3 15 -9 13 -12 11 -12 -6z"/>
<path d="M2840 70 c-9 -6 -10 -10 -3 -10 6 0 15 5 18 10 8 12 4 12 -15 0z"/>
<path d="M2530 51 c0 -6 4 -13 10 -16 6 -3 7 1 4 9 -7 18 -14 21 -14 7z"/>
<path d="M2670 51 c0 -6 4 -13 10 -16 6 -3 7 1 4 9 -7 18 -14 21 -14 7z"/>
<path d="M2810 29 c0 -5 5 -7 10 -4 6 3 10 8 10 11 0 2 -4 4 -10 4 -5 0 -10
-5 -10 -11z"/>
</g>
</svg>
